<?xml version="1.0" encoding="UTF-8"?>
<!DOCTYPE svg PUBLIC "-//W3C//DTD SVG 1.1//EN" "http://www.w3.org/Graphics/SVG/1.1/DTD/svg11.dtd">
<!-- Creator: CorelDRAW X7 -->
<svg xmlns="http://www.w3.org/2000/svg" xml:space="preserve" width="53.8543mm" height="49.6166mm" version="1.1" style="shape-rendering:geometricPrecision; text-rendering:geometricPrecision; image-rendering:optimizeQuality; fill-rule:evenodd; clip-rule:evenodd"
viewBox="0 0 5382 4959"
 xmlns:xlink="http://www.w3.org/1999/xlink">
 <defs>
  <style type="text/css">
   <![CDATA[
    .str0 {stroke:#F0C993;stroke-width:14.5608}
    .fil2 {fill:none;fill-rule:nonzero}
    .fil1 {fill:#F0C993;fill-rule:nonzero}
    .fil0 {fill:#573838;fill-rule:nonzero}
    .fil9 {fill:url(#id0)}
    .fil6 {fill:url(#id1)}
    .fil7 {fill:url(#id2)}
    .fil11 {fill:url(#id3)}
    .fil3 {fill:url(#id4)}
    .fil8 {fill:url(#id5)}
    .fil5 {fill:url(#id6)}
    .fil10 {fill:url(#id7)}
    .fil4 {fill:url(#id8)}
    .fil12 {fill:url(#id9)}
   ]]>
  </style>
  <linearGradient id="id0" gradientUnits="userSpaceOnUse" x1="1958.66" y1="1944.72" x2="3415.8" y2="1944.72">
   <stop offset="0" style="stop-opacity:1; stop-color:#F6D3A3"/>
   <stop offset="1" style="stop-opacity:1; stop-color:#E3B173"/>
  </linearGradient>
  <linearGradient id="id1" gradientUnits="userSpaceOnUse" xlink:href="#id0" x1="2371.84" y1="1199.15" x2="3118.05" y2="1199.15">
  </linearGradient>
  <linearGradient id="id2" gradientUnits="userSpaceOnUse" xlink:href="#id0" x1="2757.9" y1="1462.41" x2="3238.52" y2="1462.41">
  </linearGradient>
  <linearGradient id="id3" gradientUnits="userSpaceOnUse" xlink:href="#id0" x1="3072.11" y1="1582.2" x2="3494.35" y2="1394.11">
  </linearGradient>
  <linearGradient id="id4" gradientUnits="userSpaceOnUse" xlink:href="#id0" x1="1963.85" y1="2605.06" x2="3410.61" y2="2605.06">
  </linearGradient>
  <linearGradient id="id5" gradientUnits="userSpaceOnUse" xlink:href="#id0" x1="2321.48" y1="1917.2" x2="3048.82" y2="1917.2">
  </linearGradient>
  <linearGradient id="id6" gradientUnits="userSpaceOnUse" xlink:href="#id0" x1="1965.99" y1="1990.26" x2="2259.49" y2="1990.26">
  </linearGradient>
  <linearGradient id="id7" gradientUnits="userSpaceOnUse" xlink:href="#id0" x1="2194.69" y1="941.238" x2="3108.58" y2="941.238">
  </linearGradient>
  <linearGradient id="id8" gradientUnits="userSpaceOnUse" xlink:href="#id0" x1="3117.1" y1="1955.38" x2="3410.59" y2="1955.38">
  </linearGradient>
  <linearGradient id="id9" gradientUnits="userSpaceOnUse" xlink:href="#id0" x1="3119.96" y1="1028.81" x2="3423.4" y2="1028.81">
  </linearGradient>
 </defs>
 <g id="Layer_x0020_1">
  <metadata id="CorelCorpID_0Corel-Layer"/>
  <g id="_1910120963328">
   <rect class="fil0" width="5382" height="4959"/>
   <path class="fil1" d="M542 3610c-3,11 -2,17 4,17 2,0 7,-2 14,-5 24,-14 51,-21 80,-21 29,0 58,7 87,19 30,12 57,29 83,50 7,6 11,8 13,6 2,-1 1,-6 -3,-15l-164 -367c-4,-9 -8,-14 -12,-14 -5,0 -8,5 -11,16l-91 314zm-69 241l-56 0 217 -606 -14 -30 57 0 283 636 -56 0 -46 -104c-10,-22 -27,-42 -49,-60 -23,-17 -47,-30 -74,-39 -26,-9 -51,-13 -76,-13 -42,0 -81,13 -117,39 -7,5 -14,13 -21,25 -7,11 -11,22 -14,33l-34 119z"/>
   <path class="fil1" d="M1026 3717c0,-17 5,-31 14,-41 9,-11 20,-16 33,-16 10,0 19,3 27,10 -17,6 -25,20 -25,42 0,23 10,45 30,66 19,22 46,39 79,53 33,13 68,20 104,20 23,0 44,-2 64,-6 21,-5 40,-11 58,-20 17,-9 33,-19 46,-32 13,-12 23,-27 31,-44 7,-18 11,-37 11,-57 0,-16 -3,-31 -7,-45 -5,-13 -11,-24 -18,-33 -7,-10 -16,-18 -29,-26 -12,-7 -24,-13 -35,-18 -11,-5 -26,-9 -43,-13 -17,-4 -33,-8 -46,-10 -13,-2 -29,-5 -48,-8 -18,-3 -31,-5 -40,-6 -9,-2 -21,-4 -37,-7 -16,-4 -28,-7 -37,-9 -9,-3 -20,-7 -33,-12 -13,-5 -23,-10 -30,-16 -7,-5 -15,-12 -24,-20 -9,-7 -15,-16 -20,-25 -4,-9 -8,-19 -11,-31 -3,-12 -5,-25 -5,-39 0,-24 5,-46 15,-66 10,-19 23,-35 40,-48 16,-13 36,-24 58,-33 22,-9 44,-15 68,-19 23,-4 47,-6 72,-6 21,0 42,1 63,4 21,2 42,6 63,12 21,6 39,13 55,21 16,8 29,19 39,32 10,13 15,27 15,42 0,23 -9,37 -26,42 -6,-28 -20,-53 -41,-75 -22,-22 -48,-38 -79,-49 -31,-11 -64,-16 -100,-16 -61,0 -109,13 -144,40 -35,27 -52,66 -52,116 0,12 2,24 7,34 4,10 11,19 21,26 10,7 20,13 31,19 11,5 24,9 41,14 16,4 31,7 45,10 14,3 31,6 51,9 19,3 33,6 43,8 10,1 23,4 41,8 18,4 32,8 42,11 10,3 22,8 37,14 14,6 26,12 35,18 8,6 17,14 27,23 10,9 18,19 23,29 5,10 10,22 13,36 4,14 6,28 6,44 0,25 -5,49 -15,70 -9,21 -22,38 -38,53 -17,15 -36,27 -58,37 -22,10 -45,18 -69,22 -25,5 -50,8 -76,8 -51,0 -97,-7 -136,-19 -40,-12 -71,-29 -93,-52 -22,-22 -33,-48 -33,-76z"/>
   <path class="fil1" d="M1722 3851l-51 0 0 -636 51 0 0 334c27,-31 61,-54 102,-70 41,-16 84,-24 130,-24 60,0 112,13 156,38l0 -278 51 0 0 636 -51 0 0 -307c0,-22 -11,-40 -32,-52 -22,-12 -50,-18 -84,-18 -20,0 -39,2 -60,6 -21,4 -41,10 -61,17 -20,8 -40,17 -58,29 -18,11 -34,24 -48,38 -14,14 -25,31 -33,49 -8,19 -12,39 -12,59l0 179z"/>
   <polygon class="fil1" points="2310,3215 2361,3215 2361,3851 2310,3851 "/>
   <path class="fil1" d="M2511 3851l0 -636 292 0c23,0 43,2 62,7 19,4 35,10 49,18 13,7 25,16 35,26 11,10 19,21 26,32 6,11 11,22 16,34 4,12 7,24 8,34 2,10 3,20 3,30 0,10 -1,20 -3,30 -1,10 -4,22 -8,34 -5,12 -10,23 -16,34 -7,10 -15,21 -26,31 -10,10 -22,19 -35,27 -14,7 -30,13 -49,18 -19,5 -39,7 -62,7l-18 0c-5,0 -8,1 -10,1 -2,1 -3,2 -3,4 1,1 2,3 4,5 2,2 5,5 9,8 10,9 22,20 35,34 12,14 23,27 33,39 9,12 23,30 41,54 1,2 2,3 2,4 1,1 2,2 3,3 1,2 2,3 3,4 18,25 38,48 61,70 22,22 41,38 56,48l-71 0c-12,-7 -25,-18 -39,-32 -15,-14 -28,-30 -41,-46 -13,-17 -26,-34 -40,-52 -13,-19 -27,-36 -40,-53 -13,-17 -25,-32 -38,-46 -12,-13 -24,-24 -37,-32 -12,-9 -23,-13 -34,-13l-57 0 0 -12 125 0c63,0 111,-15 144,-45 34,-30 50,-71 50,-124 0,-53 -16,-94 -50,-124 -33,-30 -81,-45 -144,-45l-152 0c-13,0 -22,3 -27,8 -5,5 -7,16 -7,33l1 583 -51 0z"/>
   <path class="fil1" d="M3056 3215l56 0 248 557c4,9 8,13 12,13 5,0 9,-5 12,-15l62 -217c3,-9 4,-19 3,-30 -1,-11 -3,-21 -7,-30l-124 -278 56 0 90 202c4,8 8,13 12,13 4,0 7,-5 10,-14l58 -201 56 0 -90 252c-3,9 -4,19 -4,30 1,11 3,21 7,30l109 245c4,9 8,13 12,13 5,0 8,-5 12,-15l159 -555 56 0 -225 636 -35 0 -113 -254c-4,-9 -8,-13 -13,-13 -4,0 -8,4 -11,13l-90 254 -34 0 -284 -636z"/>
   <path class="fil1" d="M3945 3610c-4,11 -2,17 3,17 3,0 7,-2 14,-5 25,-14 52,-21 81,-21 28,0 58,7 87,19 29,12 56,29 82,50 7,6 12,8 14,6 1,-1 0,-6 -3,-15l-164 -367c-4,-9 -8,-14 -13,-14 -4,0 -8,5 -11,16l-90 314zm-70 241l-56 0 217 -606 -13 -30 56 0 284 636 -56 0 -47 -104c-10,-22 -26,-42 -49,-60 -22,-17 -47,-30 -73,-39 -27,-9 -52,-13 -76,-13 -42,0 -82,13 -118,39 -7,5 -14,13 -20,25 -7,11 -12,22 -15,33l-34 119z"/>
   <path class="fil1" d="M4514 3258c0,12 0,97 0,256 0,159 -1,254 -1,284 0,17 3,28 8,34 5,6 14,9 26,9 7,0 20,0 39,1 20,0 33,0 38,0 33,0 63,-4 91,-13 28,-8 52,-20 73,-34 20,-15 38,-33 54,-52 16,-20 29,-41 39,-64 10,-24 17,-47 22,-72 5,-24 7,-49 7,-74 0,-30 -3,-60 -10,-89 -7,-28 -18,-56 -33,-83 -15,-26 -33,-49 -55,-69 -22,-20 -49,-36 -81,-47 -32,-12 -68,-18 -107,-18 -5,0 -18,0 -38,0 -19,0 -32,0 -39,0 -10,0 -18,3 -23,7 -5,4 -9,12 -10,24zm-51 -43l201 0c42,0 82,8 119,24 37,16 69,38 96,65 26,28 48,62 63,101 15,40 23,82 23,128 0,45 -8,88 -23,127 -15,40 -37,73 -63,101 -27,28 -59,50 -96,66 -37,16 -77,24 -119,24l-201 0 0 -636z"/>
   <path class="fil1" d="M1555 4171l-13 0 0 -160 13 0 0 84c7,-8 15,-14 26,-18 10,-4 21,-6 32,-6 15,0 29,3 40,10l0 -70 13 0 0 160 -13 0 0 -77c0,-6 -3,-10 -8,-13 -6,-3 -13,-5 -22,-5 -5,0 -10,1 -15,2 -5,1 -10,2 -15,4 -5,2 -10,4 -15,7 -4,3 -8,6 -12,10 -3,3 -6,7 -8,12 -2,5 -3,10 -3,15l0 45z"/>
   <path class="fil2 str0" d="M1555 4171l-13 0 0 -160 13 0 0 84c7,-8 15,-14 26,-18 10,-4 21,-6 32,-6 15,0 29,3 40,10l0 -70 13 0 0 160 -13 0 0 -77c0,-6 -3,-10 -8,-13 -6,-3 -13,-5 -22,-5 -5,0 -10,1 -15,2 -5,1 -10,2 -15,4 -5,2 -10,4 -15,7 -4,3 -8,6 -12,10 -3,3 -6,7 -8,12 -2,5 -3,10 -3,15l0 45z"/>
   <path class="fil1" d="M1716 4058c-3,10 -5,21 -5,33 0,12 2,23 5,33 4,10 9,18 15,25 6,7 13,12 21,16 8,4 17,6 26,6 10,0 18,-2 26,-6 9,-4 16,-9 22,-16 6,-7 11,-15 14,-25 4,-10 6,-21 6,-33 0,-12 -2,-23 -6,-33 -3,-10 -8,-18 -14,-25 -6,-7 -13,-13 -22,-16 -8,-4 -16,-6 -26,-6 -9,0 -18,2 -26,6 -8,3 -15,9 -21,16 -6,7 -11,15 -15,25zm62 116c-8,0 -17,-1 -25,-4 -8,-2 -15,-6 -22,-11 -7,-5 -12,-10 -17,-17 -5,-7 -9,-15 -12,-23 -2,-9 -4,-18 -4,-28 0,-10 2,-19 4,-28 3,-9 7,-16 12,-23 5,-7 10,-13 17,-18 7,-4 14,-8 22,-11 8,-2 17,-4 25,-4 11,0 22,3 31,7 10,4 19,9 26,16 7,8 13,16 17,27 4,10 6,22 6,34 0,12 -2,23 -6,34 -4,10 -10,19 -17,26 -7,8 -16,13 -26,17 -9,4 -20,6 -31,6z"/>
   <path class="fil2 str0" d="M1716 4058c-3,10 -5,21 -5,33 0,12 2,23 5,33 4,10 9,18 15,25 6,7 13,12 21,16 8,4 17,6 26,6 10,0 18,-2 26,-6 9,-4 16,-9 22,-16 6,-7 11,-15 14,-25 4,-10 6,-21 6,-33 0,-12 -2,-23 -6,-33 -3,-10 -8,-18 -14,-25 -6,-7 -13,-13 -22,-16 -8,-4 -16,-6 -26,-6 -9,0 -18,2 -26,6 -8,3 -15,9 -21,16 -6,7 -11,15 -15,25zm62 116c-8,0 -17,-1 -25,-4 -8,-2 -15,-6 -22,-11 -7,-5 -12,-10 -17,-17 -5,-7 -9,-15 -12,-23 -2,-9 -4,-18 -4,-28 0,-10 2,-19 4,-28 3,-9 7,-16 12,-23 5,-7 10,-13 17,-18 7,-4 14,-8 22,-11 8,-2 17,-4 25,-4 11,0 22,3 31,7 10,4 19,9 26,16 7,8 13,16 17,27 4,10 6,22 6,34 0,12 -2,23 -6,34 -4,10 -10,19 -17,26 -7,8 -16,13 -26,17 -9,4 -20,6 -31,6z"/>
   <path class="fil1" d="M1871 4011l123 0 0 14c-6,-3 -14,-5 -25,-8 -11,-2 -18,-3 -22,-3 -3,0 -5,1 -6,2 -2,2 -2,5 -2,9l0 146 -13 0 0 -146c0,-4 -1,-7 -2,-9 -1,-1 -4,-2 -7,-2 -3,0 -11,1 -21,3 -11,3 -19,5 -25,8l0 -14z"/>
   <path class="fil2 str0" d="M1871 4011l123 0 0 14c-6,-3 -14,-5 -25,-8 -11,-2 -18,-3 -22,-3 -3,0 -5,1 -6,2 -2,2 -2,5 -2,9l0 146 -13 0 0 -146c0,-4 -1,-7 -2,-9 -1,-1 -4,-2 -7,-2 -3,0 -11,1 -21,3 -11,3 -19,5 -25,8l0 -14z"/>
   <path class="fil1" d="M2028 4171l0 -160 111 0 0 14c-8,-3 -21,-5 -40,-8 -18,-2 -35,-3 -49,-3 -3,0 -6,1 -7,2 -1,2 -2,5 -2,9l0 50c0,3 1,5 2,6 2,2 4,3 6,3l75 0 0 13c-10,-2 -22,-5 -38,-7 -16,-2 -28,-3 -37,-3 -2,0 -4,1 -6,2 -1,1 -2,3 -2,5l0 63c0,4 1,7 2,9 1,1 4,2 7,2 14,0 31,-1 49,-4 19,-2 32,-4 40,-7l0 14 -111 0z"/>
   <path class="fil2 str0" d="M2028 4171l0 -160 111 0 0 14c-8,-3 -21,-5 -40,-8 -18,-2 -35,-3 -49,-3 -3,0 -6,1 -7,2 -1,2 -2,5 -2,9l0 50c0,3 1,5 2,6 2,2 4,3 6,3l75 0 0 13c-10,-2 -22,-5 -38,-7 -16,-2 -28,-3 -37,-3 -2,0 -4,1 -6,2 -1,1 -2,3 -2,5l0 63c0,4 1,7 2,9 1,1 4,2 7,2 14,0 31,-1 49,-4 19,-2 32,-4 40,-7l0 14 -111 0z"/>
   <path class="fil1" d="M2285 4171l-111 0 0 -160 13 0 0 146c0,4 0,7 2,9 1,1 3,2 6,2 15,0 31,-1 50,-4 18,-2 32,-4 40,-7l0 14z"/>
   <path class="fil2 str0" d="M2285 4171l-111 0 0 -160 13 0 0 146c0,4 0,7 2,9 1,1 3,2 6,2 15,0 31,-1 50,-4 18,-2 32,-4 40,-7l0 14z"/>
   <path class="fil1" d="M2305 4137c0,-4 1,-7 3,-10 3,-3 6,-4 9,-4 2,0 5,1 7,2 -5,2 -7,5 -7,11 0,6 3,11 8,17 5,5 11,10 20,13 8,3 17,5 26,5 6,0 11,0 16,-2 5,-1 10,-2 15,-4 4,-3 8,-5 11,-8 4,-4 6,-7 8,-12 2,-4 3,-9 3,-14 0,-4 -1,-8 -2,-11 -1,-4 -3,-6 -4,-9 -2,-2 -5,-4 -8,-6 -3,-2 -6,-4 -9,-5 -2,-1 -6,-2 -10,-3 -5,-1 -9,-2 -12,-3 -3,0 -7,-1 -12,-2 -5,0 -8,-1 -10,-1 -2,0 -5,-1 -9,-2 -4,-1 -8,-2 -10,-2 -2,-1 -5,-2 -8,-3 -3,-1 -6,-3 -8,-4 -2,-1 -4,-3 -6,-5 -2,-2 -4,-4 -5,-6 -1,-3 -2,-5 -3,-8 0,-3 -1,-7 -1,-10 0,-6 2,-12 4,-17 3,-5 6,-9 10,-12 4,-3 9,-6 15,-8 5,-2 11,-4 17,-5 6,-1 12,-2 18,-2 5,0 11,1 16,1 5,1 11,2 16,4 5,1 10,3 14,5 4,2 7,5 9,8 3,3 4,7 4,11 0,5 -2,9 -6,10 -2,-7 -5,-13 -11,-19 -5,-5 -12,-9 -20,-12 -7,-3 -16,-4 -25,-4 -15,0 -27,3 -36,10 -9,7 -13,16 -13,29 0,3 0,6 1,9 2,2 3,4 6,6 2,2 5,4 8,5 2,1 6,2 10,3 4,1 8,2 11,3 4,1 8,1 13,2 5,1 9,2 11,2 2,1 6,1 10,2 5,1 8,2 11,3 2,1 6,2 9,4 4,1 7,3 9,4 2,2 4,4 7,6 3,2 4,5 6,7 1,3 2,6 3,9 1,4 1,8 1,12 0,6 -1,12 -3,17 -3,5 -6,10 -10,13 -4,4 -9,7 -14,10 -6,2 -12,4 -18,5 -6,2 -12,2 -19,2 -13,0 -24,-1 -34,-4 -10,-4 -18,-8 -24,-13 -5,-6 -8,-13 -8,-20z"/>
   <path class="fil2 str0" d="M2305 4137c0,-4 1,-7 3,-10 3,-3 6,-4 9,-4 2,0 5,1 7,2 -5,2 -7,5 -7,11 0,6 3,11 8,17 5,5 11,10 20,13 8,3 17,5 26,5 6,0 11,0 16,-2 5,-1 10,-2 15,-4 4,-3 8,-5 11,-8 4,-4 6,-7 8,-12 2,-4 3,-9 3,-14 0,-4 -1,-8 -2,-11 -1,-4 -3,-6 -4,-9 -2,-2 -5,-4 -8,-6 -3,-2 -6,-4 -9,-5 -2,-1 -6,-2 -10,-3 -5,-1 -9,-2 -12,-3 -3,0 -7,-1 -12,-2 -5,0 -8,-1 -10,-1 -2,0 -5,-1 -9,-2 -4,-1 -8,-2 -10,-2 -2,-1 -5,-2 -8,-3 -3,-1 -6,-3 -8,-4 -2,-1 -4,-3 -6,-5 -2,-2 -4,-4 -5,-6 -1,-3 -2,-5 -3,-8 0,-3 -1,-7 -1,-10 0,-6 2,-12 4,-17 3,-5 6,-9 10,-12 4,-3 9,-6 15,-8 5,-2 11,-4 17,-5 6,-1 12,-2 18,-2 5,0 11,1 16,1 5,1 11,2 16,4 5,1 10,3 14,5 4,2 7,5 9,8 3,3 4,7 4,11 0,5 -2,9 -6,10 -2,-7 -5,-13 -11,-19 -5,-5 -12,-9 -20,-12 -7,-3 -16,-4 -25,-4 -15,0 -27,3 -36,10 -9,7 -13,16 -13,29 0,3 0,6 1,9 2,2 3,4 6,6 2,2 5,4 8,5 2,1 6,2 10,3 4,1 8,2 11,3 4,1 8,1 13,2 5,1 9,2 11,2 2,1 6,1 10,2 5,1 8,2 11,3 2,1 6,2 9,4 4,1 7,3 9,4 2,2 4,4 7,6 3,2 4,5 6,7 1,3 2,6 3,9 1,4 1,8 1,12 0,6 -1,12 -3,17 -3,5 -6,10 -10,13 -4,4 -9,7 -14,10 -6,2 -12,4 -18,5 -6,2 -12,2 -19,2 -13,0 -24,-1 -34,-4 -10,-4 -18,-8 -24,-13 -5,-6 -8,-13 -8,-20z"/>
   <path class="fil1" d="M2540 4114c0,11 3,20 9,29 6,8 14,14 25,18 10,5 23,7 36,7 16,0 28,-1 35,-3 3,0 4,-1 5,-3 0,-2 0,-4 -2,-5 -5,-6 -14,-14 -26,-26 -12,-12 -20,-20 -25,-25 0,0 -1,0 -2,-1 -1,-1 -2,-3 -4,-5 -2,-2 -4,-3 -6,-6 -2,-2 -4,-4 -6,-6l-6 -6c-3,-3 -6,-4 -9,-4 -2,0 -3,1 -5,2 -5,3 -10,8 -13,15 -4,6 -6,13 -6,19zm-12 4c0,-9 2,-17 8,-25 5,-8 12,-14 20,-17 5,-2 6,-5 3,-9 -9,-10 -13,-19 -13,-26 0,-5 2,-11 5,-15 3,-5 7,-8 12,-11 5,-3 11,-5 18,-6 7,-2 15,-2 23,-2 12,0 22,1 31,2 8,2 16,6 21,10 6,4 8,9 8,15 0,3 0,6 -1,7 -1,2 -3,3 -6,4 -1,-4 -4,-9 -7,-13 -3,-4 -6,-8 -11,-11 -4,-3 -9,-6 -15,-7 -7,-2 -13,-3 -20,-3 -4,0 -8,0 -12,0 -4,0 -7,1 -11,1 -4,1 -7,2 -10,3 -3,1 -6,2 -8,4 -3,2 -5,4 -6,6 -1,3 -2,6 -2,9 -1,2 0,6 2,9 2,4 5,8 8,12 4,4 7,8 11,11 3,4 7,8 12,13 5,5 9,9 11,12l54 54c1,1 2,2 3,2 2,0 2,-2 2,-4 0,-20 -1,-34 -2,-44 -1,-10 -4,-19 -8,-27l14 0 0 74c0,3 1,5 2,8 1,2 2,4 4,6l11 11 -18 0c0,0 -1,-1 -1,-2 -1,0 -2,-1 -2,-1 -1,-2 -3,-2 -5,-1 -7,2 -16,4 -26,5 -10,2 -20,2 -32,2 -10,0 -20,-1 -29,-4 -8,-3 -15,-7 -21,-12 -6,-5 -10,-11 -13,-18 -3,-7 -4,-14 -4,-22z"/>
   <path class="fil2 str0" d="M2540 4114c0,11 3,20 9,29 6,8 14,14 25,18 10,5 23,7 36,7 16,0 28,-1 35,-3 3,0 4,-1 5,-3 0,-2 0,-4 -2,-5 -5,-6 -14,-14 -26,-26 -12,-12 -20,-20 -25,-25 0,0 -1,0 -2,-1 -1,-1 -2,-3 -4,-5 -2,-2 -4,-3 -6,-6 -2,-2 -4,-4 -6,-6l-6 -6c-3,-3 -6,-4 -9,-4 -2,0 -3,1 -5,2 -5,3 -10,8 -13,15 -4,6 -6,13 -6,19zm-12 4c0,-9 2,-17 8,-25 5,-8 12,-14 20,-17 5,-2 6,-5 3,-9 -9,-10 -13,-19 -13,-26 0,-5 2,-11 5,-15 3,-5 7,-8 12,-11 5,-3 11,-5 18,-6 7,-2 15,-2 23,-2 12,0 22,1 31,2 8,2 16,6 21,10 6,4 8,9 8,15 0,3 0,6 -1,7 -1,2 -3,3 -6,4 -1,-4 -4,-9 -7,-13 -3,-4 -6,-8 -11,-11 -4,-3 -9,-6 -15,-7 -7,-2 -13,-3 -20,-3 -4,0 -8,0 -12,0 -4,0 -7,1 -11,1 -4,1 -7,2 -10,3 -3,1 -6,2 -8,4 -3,2 -5,4 -6,6 -1,3 -2,6 -2,9 -1,2 0,6 2,9 2,4 5,8 8,12 4,4 7,8 11,11 3,4 7,8 12,13 5,5 9,9 11,12l54 54c1,1 2,2 3,2 2,0 2,-2 2,-4 0,-20 -1,-34 -2,-44 -1,-10 -4,-19 -8,-27l14 0 0 74c0,3 1,5 2,8 1,2 2,4 4,6l11 11 -18 0c0,0 -1,-1 -1,-2 -1,0 -2,-1 -2,-1 -1,-2 -3,-2 -5,-1 -7,2 -16,4 -26,5 -10,2 -20,2 -32,2 -10,0 -20,-1 -29,-4 -8,-3 -15,-7 -21,-12 -6,-5 -10,-11 -13,-18 -3,-7 -4,-14 -4,-22z"/>
   <path class="fil1" d="M2776 4171l0 -160 74 0c6,0 11,0 16,1 4,2 8,3 12,5 3,2 6,4 9,7 2,2 5,5 6,8 2,2 3,5 4,8 1,3 2,6 2,9 1,2 1,5 1,7 0,3 0,5 -1,8 0,3 -1,5 -2,8 -1,3 -2,6 -4,9 -1,3 -4,5 -6,8 -3,3 -6,5 -9,7 -4,2 -8,3 -12,4 -5,1 -10,2 -16,2l-5 0c-1,0 -2,0 -2,0 -1,1 -1,1 -1,1 0,1 1,1 1,2 1,0 1,1 2,2 3,2 6,5 9,8 3,4 6,7 9,10 2,3 5,8 10,14 0,0 0,0 0,1 1,0 1,0 1,0 0,1 1,1 1,1 4,7 10,13 15,18 6,5 11,9 15,12l-19 0c-3,-2 -6,-4 -9,-8 -4,-4 -7,-7 -11,-12 -3,-4 -6,-8 -10,-13 -3,-4 -6,-9 -10,-13 -3,-4 -6,-8 -9,-12 -3,-3 -7,-6 -10,-8 -3,-2 -6,-3 -8,-3l-15 0 0 -3 32 0c16,0 28,-4 36,-11 9,-8 13,-18 13,-32 0,-13 -4,-23 -13,-31 -8,-7 -20,-11 -36,-11l-39 0c-3,0 -5,1 -6,2 -1,1 -2,4 -2,8l0 147 -13 0z"/>
   <path class="fil2 str0" d="M2776 4171l0 -160 74 0c6,0 11,0 16,1 4,2 8,3 12,5 3,2 6,4 9,7 2,2 5,5 6,8 2,2 3,5 4,8 1,3 2,6 2,9 1,2 1,5 1,7 0,3 0,5 -1,8 0,3 -1,5 -2,8 -1,3 -2,6 -4,9 -1,3 -4,5 -6,8 -3,3 -6,5 -9,7 -4,2 -8,3 -12,4 -5,1 -10,2 -16,2l-5 0c-1,0 -2,0 -2,0 -1,1 -1,1 -1,1 0,1 1,1 1,2 1,0 1,1 2,2 3,2 6,5 9,8 3,4 6,7 9,10 2,3 5,8 10,14 0,0 0,0 0,1 1,0 1,0 1,0 0,1 1,1 1,1 4,7 10,13 15,18 6,5 11,9 15,12l-19 0c-3,-2 -6,-4 -9,-8 -4,-4 -7,-7 -11,-12 -3,-4 -6,-8 -10,-13 -3,-4 -6,-9 -10,-13 -3,-4 -6,-8 -9,-12 -3,-3 -7,-6 -10,-8 -3,-2 -6,-3 -8,-3l-15 0 0 -3 32 0c16,0 28,-4 36,-11 9,-8 13,-18 13,-32 0,-13 -4,-23 -13,-31 -8,-7 -20,-11 -36,-11l-39 0c-3,0 -5,1 -6,2 -1,1 -2,4 -2,8l0 147 -13 0z"/>
   <path class="fil1" d="M2933 4171l0 -160 111 0 0 14c-9,-3 -22,-5 -41,-8 -18,-2 -35,-3 -49,-3 -3,0 -5,1 -7,2 -1,2 -2,5 -2,9l0 50c0,3 1,5 2,6 2,2 4,3 6,3l75 0 0 13c-10,-2 -22,-5 -38,-7 -16,-2 -28,-3 -37,-3 -2,0 -4,1 -5,2 -2,1 -3,3 -3,5l0 63c0,4 1,7 2,9 2,1 4,2 7,2 14,0 31,-1 49,-4 19,-2 32,-4 41,-7l0 14 -111 0z"/>
   <path class="fil2 str0" d="M2933 4171l0 -160 111 0 0 14c-9,-3 -22,-5 -41,-8 -18,-2 -35,-3 -49,-3 -3,0 -5,1 -7,2 -1,2 -2,5 -2,9l0 50c0,3 1,5 2,6 2,2 4,3 6,3l75 0 0 13c-10,-2 -22,-5 -38,-7 -16,-2 -28,-3 -37,-3 -2,0 -4,1 -5,2 -2,1 -3,3 -3,5l0 63c0,4 1,7 2,9 2,1 4,2 7,2 14,0 31,-1 49,-4 19,-2 32,-4 41,-7l0 14 -111 0z"/>
   <path class="fil1" d="M3068 4137c0,-4 1,-7 3,-10 2,-3 5,-4 9,-4 2,0 4,1 6,2 -4,2 -6,5 -6,11 0,6 2,11 7,17 6,5 12,10 21,13 8,3 17,5 26,5 5,0 11,0 16,-2 5,-1 10,-2 14,-4 5,-3 9,-5 12,-8 3,-4 6,-7 8,-12 2,-4 3,-9 3,-14 0,-4 -1,-8 -2,-11 -1,-4 -3,-6 -5,-9 -1,-2 -4,-4 -7,-6 -3,-2 -6,-4 -9,-5 -3,-1 -6,-2 -11,-3 -4,-1 -8,-2 -11,-3 -3,0 -7,-1 -12,-2 -5,0 -8,-1 -10,-1 -3,0 -6,-1 -10,-2 -4,-1 -7,-2 -9,-2 -2,-1 -5,-2 -8,-3 -4,-1 -6,-3 -8,-4 -2,-1 -4,-3 -6,-5 -2,-2 -4,-4 -5,-6 -1,-3 -2,-5 -3,-8 -1,-3 -1,-7 -1,-10 0,-6 1,-12 4,-17 2,-5 6,-9 10,-12 4,-3 9,-6 14,-8 6,-2 12,-4 18,-5 5,-1 11,-2 18,-2 5,0 10,1 16,1 5,1 10,2 16,4 5,1 9,3 13,5 4,2 8,5 10,8 3,3 4,7 4,11 0,5 -2,9 -7,10 -1,-7 -5,-13 -10,-19 -5,-5 -12,-9 -20,-12 -8,-3 -16,-4 -25,-4 -15,0 -27,3 -36,10 -9,7 -14,16 -14,29 0,3 1,6 2,9 1,2 3,4 6,6 2,2 5,4 7,5 3,1 7,2 11,3 4,1 8,2 11,3 4,1 8,1 13,2 5,1 8,2 11,2 2,1 6,1 10,2 5,1 8,2 11,3 2,1 5,2 9,4 4,1 7,3 9,4 2,2 4,4 7,6 2,2 4,5 5,7 2,3 3,6 4,9 1,4 1,8 1,12 0,6 -1,12 -3,17 -3,5 -6,10 -10,13 -4,4 -9,7 -15,10 -5,2 -11,4 -17,5 -6,2 -13,2 -19,2 -13,0 -25,-1 -35,-4 -10,-4 -17,-8 -23,-13 -6,-6 -8,-13 -8,-20z"/>
   <path class="fil2 str0" d="M3068 4137c0,-4 1,-7 3,-10 2,-3 5,-4 9,-4 2,0 4,1 6,2 -4,2 -6,5 -6,11 0,6 2,11 7,17 6,5 12,10 21,13 8,3 17,5 26,5 5,0 11,0 16,-2 5,-1 10,-2 14,-4 5,-3 9,-5 12,-8 3,-4 6,-7 8,-12 2,-4 3,-9 3,-14 0,-4 -1,-8 -2,-11 -1,-4 -3,-6 -5,-9 -1,-2 -4,-4 -7,-6 -3,-2 -6,-4 -9,-5 -3,-1 -6,-2 -11,-3 -4,-1 -8,-2 -11,-3 -3,0 -7,-1 -12,-2 -5,0 -8,-1 -10,-1 -3,0 -6,-1 -10,-2 -4,-1 -7,-2 -9,-2 -2,-1 -5,-2 -8,-3 -4,-1 -6,-3 -8,-4 -2,-1 -4,-3 -6,-5 -2,-2 -4,-4 -5,-6 -1,-3 -2,-5 -3,-8 -1,-3 -1,-7 -1,-10 0,-6 1,-12 4,-17 2,-5 6,-9 10,-12 4,-3 9,-6 14,-8 6,-2 12,-4 18,-5 5,-1 11,-2 18,-2 5,0 10,1 16,1 5,1 10,2 16,4 5,1 9,3 13,5 4,2 8,5 10,8 3,3 4,7 4,11 0,5 -2,9 -7,10 -1,-7 -5,-13 -10,-19 -5,-5 -12,-9 -20,-12 -8,-3 -16,-4 -25,-4 -15,0 -27,3 -36,10 -9,7 -14,16 -14,29 0,3 1,6 2,9 1,2 3,4 6,6 2,2 5,4 7,5 3,1 7,2 11,3 4,1 8,2 11,3 4,1 8,1 13,2 5,1 8,2 11,2 2,1 6,1 10,2 5,1 8,2 11,3 2,1 5,2 9,4 4,1 7,3 9,4 2,2 4,4 7,6 2,2 4,5 5,7 2,3 3,6 4,9 1,4 1,8 1,12 0,6 -1,12 -3,17 -3,5 -6,10 -10,13 -4,4 -9,7 -15,10 -5,2 -11,4 -17,5 -6,2 -13,2 -19,2 -13,0 -25,-1 -35,-4 -10,-4 -17,-8 -23,-13 -6,-6 -8,-13 -8,-20z"/>
   <path class="fil1" d="M3244 4058c-4,10 -6,21 -6,33 0,12 2,23 6,33 3,10 8,18 14,25 6,7 13,12 21,16 9,4 17,6 26,6 10,0 18,-2 27,-6 8,-4 15,-9 21,-16 6,-7 11,-15 15,-25 3,-10 5,-21 5,-33 0,-12 -2,-23 -5,-33 -4,-10 -9,-18 -15,-25 -6,-7 -13,-13 -21,-16 -9,-4 -17,-6 -27,-6 -9,0 -17,2 -26,6 -8,3 -15,9 -21,16 -6,7 -11,15 -14,25zm61 116c-8,0 -17,-1 -25,-4 -8,-2 -15,-6 -22,-11 -6,-5 -12,-10 -17,-17 -5,-7 -9,-15 -11,-23 -3,-9 -5,-18 -5,-28 0,-10 2,-19 5,-28 2,-9 6,-16 11,-23 5,-7 11,-13 17,-18 7,-4 14,-8 22,-11 8,-2 17,-4 25,-4 11,0 22,3 32,7 9,4 18,9 25,16 7,8 13,16 17,27 5,10 7,22 7,34 0,12 -2,23 -7,34 -4,10 -10,19 -17,26 -7,8 -16,13 -25,17 -10,4 -21,6 -32,6z"/>
   <path class="fil2 str0" d="M3244 4058c-4,10 -6,21 -6,33 0,12 2,23 6,33 3,10 8,18 14,25 6,7 13,12 21,16 9,4 17,6 26,6 10,0 18,-2 27,-6 8,-4 15,-9 21,-16 6,-7 11,-15 15,-25 3,-10 5,-21 5,-33 0,-12 -2,-23 -5,-33 -4,-10 -9,-18 -15,-25 -6,-7 -13,-13 -21,-16 -9,-4 -17,-6 -27,-6 -9,0 -17,2 -26,6 -8,3 -15,9 -21,16 -6,7 -11,15 -14,25zm61 116c-8,0 -17,-1 -25,-4 -8,-2 -15,-6 -22,-11 -6,-5 -12,-10 -17,-17 -5,-7 -9,-15 -11,-23 -3,-9 -5,-18 -5,-28 0,-10 2,-19 5,-28 2,-9 6,-16 11,-23 5,-7 11,-13 17,-18 7,-4 14,-8 22,-11 8,-2 17,-4 25,-4 11,0 22,3 32,7 9,4 18,9 25,16 7,8 13,16 17,27 5,10 7,22 7,34 0,12 -2,23 -7,34 -4,10 -10,19 -17,26 -7,8 -16,13 -25,17 -10,4 -21,6 -32,6z"/>
   <path class="fil1" d="M3419 4171l0 -160 73 0c6,0 11,0 16,1 5,2 9,3 12,5 3,2 6,4 9,7 3,2 5,5 6,8 2,2 3,5 5,8 1,3 1,6 2,9 0,2 0,5 0,7 0,3 0,5 0,8 -1,3 -1,5 -2,8 -2,3 -3,6 -5,9 -1,3 -3,5 -6,8 -3,3 -6,5 -9,7 -3,2 -7,3 -12,4 -5,1 -10,2 -16,2l-4 0c-2,0 -2,0 -3,0 0,1 -1,1 -1,1 1,1 1,1 1,2 1,0 2,1 3,2 2,2 5,5 8,8 4,4 6,7 9,10 2,3 6,8 10,14 0,0 1,0 1,1 0,0 0,0 0,0 1,1 1,1 1,1 5,7 10,13 15,18 6,5 11,9 15,12l-18 0c-3,-2 -7,-4 -10,-8 -4,-4 -7,-7 -10,-12 -4,-4 -7,-8 -10,-13 -4,-4 -7,-9 -10,-13 -4,-4 -7,-8 -10,-12 -3,-3 -6,-6 -9,-8 -4,-2 -6,-3 -9,-3l-14 0 0 -3 31 0c16,0 28,-4 36,-11 9,-8 13,-18 13,-32 0,-13 -4,-23 -13,-31 -8,-7 -20,-11 -36,-11l-38 0c-3,0 -6,1 -7,2 -1,1 -2,4 -2,8l0 147 -12 0z"/>
   <path class="fil2 str0" d="M3419 4171l0 -160 73 0c6,0 11,0 16,1 5,2 9,3 12,5 3,2 6,4 9,7 3,2 5,5 6,8 2,2 3,5 5,8 1,3 1,6 2,9 0,2 0,5 0,7 0,3 0,5 0,8 -1,3 -1,5 -2,8 -2,3 -3,6 -5,9 -1,3 -3,5 -6,8 -3,3 -6,5 -9,7 -3,2 -7,3 -12,4 -5,1 -10,2 -16,2l-4 0c-2,0 -2,0 -3,0 0,1 -1,1 -1,1 1,1 1,1 1,2 1,0 2,1 3,2 2,2 5,5 8,8 4,4 6,7 9,10 2,3 6,8 10,14 0,0 1,0 1,1 0,0 0,0 0,0 1,1 1,1 1,1 5,7 10,13 15,18 6,5 11,9 15,12l-18 0c-3,-2 -7,-4 -10,-8 -4,-4 -7,-7 -10,-12 -4,-4 -7,-8 -10,-13 -4,-4 -7,-9 -10,-13 -4,-4 -7,-8 -10,-12 -3,-3 -6,-6 -9,-8 -4,-2 -6,-3 -9,-3l-14 0 0 -3 31 0c16,0 28,-4 36,-11 9,-8 13,-18 13,-32 0,-13 -4,-23 -13,-31 -8,-7 -20,-11 -36,-11l-38 0c-3,0 -6,1 -7,2 -1,1 -2,4 -2,8l0 147 -12 0z"/>
   <path class="fil1" d="M3565 4011l124 0 0 14c-6,-3 -15,-5 -25,-8 -11,-2 -18,-3 -22,-3 -3,0 -5,1 -7,2 -1,2 -2,5 -2,9l0 146 -13 0 0 -146c0,-4 0,-7 -1,-9 -2,-1 -4,-2 -7,-2 -4,0 -11,1 -22,3 -10,3 -19,5 -25,8l0 -14z"/>
   <path class="fil2 str0" d="M3565 4011l124 0 0 14c-6,-3 -15,-5 -25,-8 -11,-2 -18,-3 -22,-3 -3,0 -5,1 -7,2 -1,2 -2,5 -2,9l0 146 -13 0 0 -146c0,-4 0,-7 -1,-9 -2,-1 -4,-2 -7,-2 -4,0 -11,1 -22,3 -10,3 -19,5 -25,8l0 -14z"/>
   <path class="fil1" d="M3709 4137c0,-4 2,-7 4,-10 2,-3 5,-4 8,-4 3,0 5,1 7,2 -4,2 -6,5 -6,11 0,6 2,11 7,17 5,5 12,10 20,13 9,3 17,5 27,5 5,0 11,0 16,-2 5,-1 10,-2 14,-4 5,-3 9,-5 12,-8 3,-4 6,-7 8,-12 1,-4 2,-9 2,-14 0,-4 0,-8 -1,-11 -2,-4 -3,-6 -5,-9 -2,-2 -4,-4 -7,-6 -3,-2 -6,-4 -9,-5 -3,-1 -6,-2 -11,-3 -4,-1 -8,-2 -11,-3 -4,0 -8,-1 -13,-2 -4,0 -7,-1 -10,-1 -2,0 -5,-1 -9,-2 -4,-1 -7,-2 -9,-2 -2,-1 -5,-2 -8,-3 -4,-1 -6,-3 -8,-4 -2,-1 -4,-3 -6,-5 -2,-2 -4,-4 -5,-6 -1,-3 -2,-5 -3,-8 -1,-3 -1,-7 -1,-10 0,-6 1,-12 4,-17 2,-5 5,-9 10,-12 4,-3 9,-6 14,-8 6,-2 11,-4 17,-5 6,-1 12,-2 18,-2 6,0 11,1 16,1 6,1 11,2 16,4 6,1 10,3 14,5 4,2 7,5 10,8 2,3 4,7 4,11 0,5 -2,9 -7,10 -1,-7 -5,-13 -10,-19 -6,-5 -12,-9 -20,-12 -8,-3 -16,-4 -25,-4 -16,0 -28,3 -37,10 -8,7 -13,16 -13,29 0,3 1,6 2,9 1,2 3,4 5,6 3,2 5,4 8,5 3,1 6,2 10,3 5,1 8,2 12,3 3,1 8,1 13,2 4,1 8,2 11,2 2,1 5,1 10,2 4,1 8,2 10,3 3,1 6,2 10,4 3,1 6,3 9,4 2,2 4,4 7,6 2,2 4,5 5,7 2,3 3,6 4,9 1,4 1,8 1,12 0,6 -1,12 -4,17 -2,5 -5,10 -9,13 -5,4 -9,7 -15,10 -5,2 -11,4 -17,5 -7,2 -13,2 -19,2 -13,0 -25,-1 -35,-4 -10,-4 -18,-8 -23,-13 -6,-6 -9,-13 -9,-20z"/>
   <path class="fil2 str0" d="M3709 4137c0,-4 2,-7 4,-10 2,-3 5,-4 8,-4 3,0 5,1 7,2 -4,2 -6,5 -6,11 0,6 2,11 7,17 5,5 12,10 20,13 9,3 17,5 27,5 5,0 11,0 16,-2 5,-1 10,-2 14,-4 5,-3 9,-5 12,-8 3,-4 6,-7 8,-12 1,-4 2,-9 2,-14 0,-4 0,-8 -1,-11 -2,-4 -3,-6 -5,-9 -2,-2 -4,-4 -7,-6 -3,-2 -6,-4 -9,-5 -3,-1 -6,-2 -11,-3 -4,-1 -8,-2 -11,-3 -4,0 -8,-1 -13,-2 -4,0 -7,-1 -10,-1 -2,0 -5,-1 -9,-2 -4,-1 -7,-2 -9,-2 -2,-1 -5,-2 -8,-3 -4,-1 -6,-3 -8,-4 -2,-1 -4,-3 -6,-5 -2,-2 -4,-4 -5,-6 -1,-3 -2,-5 -3,-8 -1,-3 -1,-7 -1,-10 0,-6 1,-12 4,-17 2,-5 5,-9 10,-12 4,-3 9,-6 14,-8 6,-2 11,-4 17,-5 6,-1 12,-2 18,-2 6,0 11,1 16,1 6,1 11,2 16,4 6,1 10,3 14,5 4,2 7,5 10,8 2,3 4,7 4,11 0,5 -2,9 -7,10 -1,-7 -5,-13 -10,-19 -6,-5 -12,-9 -20,-12 -8,-3 -16,-4 -25,-4 -16,0 -28,3 -37,10 -8,7 -13,16 -13,29 0,3 1,6 2,9 1,2 3,4 5,6 3,2 5,4 8,5 3,1 6,2 10,3 5,1 8,2 12,3 3,1 8,1 13,2 4,1 8,2 11,2 2,1 5,1 10,2 4,1 8,2 10,3 3,1 6,2 10,4 3,1 6,3 9,4 2,2 4,4 7,6 2,2 4,5 5,7 2,3 3,6 4,9 1,4 1,8 1,12 0,6 -1,12 -4,17 -2,5 -5,10 -9,13 -5,4 -9,7 -15,10 -5,2 -11,4 -17,5 -7,2 -13,2 -19,2 -13,0 -25,-1 -35,-4 -10,-4 -18,-8 -23,-13 -6,-6 -9,-13 -9,-20z"/>
   <path class="fil3" d="M2950 2228c-20,1 -41,2 -61,4l0 0c-6,0 -182,13 -323,117l0 0c-8,6 -16,11 -25,16l0 0c-2,1 -6,2 -8,1l0 0c-24,-9 -48,-19 -72,-27l0 0c-17,-5 -33,-9 -50,-13l0 0c-17,-4 -35,-8 -52,-11l0 0c-23,-3 -46,-5 -69,-7l0 0c-38,-4 -77,-3 -115,1l0 0c-25,2 -50,5 -74,9l0 0c-23,4 -46,11 -68,17l0 0c-15,4 -29,8 -43,13l0 0c-5,2 -27,12 -26,16l0 0c3,18 6,36 11,54l0 0c7,26 14,52 23,77l0 0c8,23 18,46 28,68l0 0c15,31 32,61 51,91l0 0c25,36 52,71 82,102l0 0c40,42 84,79 133,109l0 0c26,16 53,32 81,46l0 0c26,12 54,22 81,32l0 0c20,7 41,13 61,18l0 0c18,5 36,8 53,11l0 0c19,3 37,6 56,7l0 0c32,2 64,6 96,2l0 0c13,-1 26,-1 39,-2l0 0c20,-2 40,-6 60,-9l0 0c10,-1 21,-3 32,-6l0 0c17,-4 34,-9 50,-14l0 0c22,-7 45,-14 66,-22l0 0c15,-5 29,-13 43,-19l0 0c36,-17 71,-39 104,-62l0 0c31,-22 60,-46 86,-73l0 0c37,-35 69,-74 98,-116l0 0c21,-33 41,-66 56,-102l0 0c11,-25 21,-51 30,-77l0 0c6,-17 10,-35 15,-52l0 0c4,-16 7,-32 11,-48l0 0c2,-7 0,-13 -6,-17l0 0c-29,-17 -56,-35 -85,-51l0 0c-30,-15 -60,-28 -91,-40l0 0c-28,-10 -58,-17 -87,-25l0 0c-18,-5 -36,-9 -55,-11l0 0c-24,-3 -48,-5 -72,-7l0 0c-11,0 -22,0 -33,0l0 0c-10,0 -21,0 -31,0zm-306 197c-27,-15 -54,-30 -80,-45l0 0c-1,-1 -2,-1 -4,-3l0 0c7,-5 14,-10 20,-14l0 0c35,-22 70,-42 108,-58l0 0c29,-11 59,-22 89,-31l0 0c20,-6 42,-10 63,-15l0 0c30,-6 61,-10 92,-12l0 0c37,-3 74,-1 112,1l0 0c21,2 42,5 62,9l0 0c30,7 60,14 89,23l0 0c62,18 118,47 173,80l0 0c6,4 12,9 19,13l0 0c3,2 5,5 3,9l0 0c-3,12 -5,24 -8,35l0 0c-3,15 -8,30 -12,45l0 0c-1,5 -4,3 -8,1l0 0c-20,-13 -40,-28 -60,-40l0 0c-30,-19 -62,-34 -96,-46l0 0c-20,-7 -40,-14 -60,-20l0 0c-15,-5 -31,-7 -47,-10l0 0c-16,-3 -32,-6 -48,-8l0 0c-16,-2 -31,-3 -46,-4l0 0c-20,0 -39,-1 -58,1l0 0c-23,1 -46,4 -69,8l0 0c-18,2 -35,5 -52,10l0 0c-27,7 -53,15 -78,24l0 0c-33,12 -65,28 -95,46l0 0c-1,1 -3,2 -5,2l0 0c-1,0 -3,0 -4,-1zm-205 190c-11,-6 -22,-13 -33,-19l0 0c-37,-21 -74,-42 -111,-62l0 0c-9,-5 -9,-13 -11,-20l0 0c-5,-18 -9,-36 -14,-54l0 0c-3,-14 -7,-27 -10,-40l0 0c-3,-13 -7,-26 -10,-38l0 0c-4,-14 -7,-28 -11,-43l0 0c0,0 0,0 0,0l0 0c-3,-14 -3,-14 12,-14l0 0c1,0 62,5 92,8l0 0c8,1 16,3 24,3l0 0c4,1 7,3 8,7l0 0c5,19 10,37 14,56l0 0c6,21 12,42 17,63l0 0c5,21 11,43 16,64l0 0c6,20 11,41 17,61l0 0c2,8 4,16 6,24l0 0c0,1 -1,3 -1,5l0 0c-2,-1 -4,0 -5,-1zm-203 -114c-32,-18 -65,-37 -97,-55l0 0c-40,-22 -79,-44 -118,-66l0 0c-6,-3 -11,-6 -16,-9l0 0c-2,-1 -3,-3 -3,-4l0 0c0,-1 2,-3 4,-4l0 0c14,-4 28,-8 42,-12l0 0c14,-4 27,-8 41,-11l0 0c14,-2 28,-4 41,-6l0 0c9,-2 18,-3 27,-4l0 0c17,-2 35,-3 53,-5l0 0c4,0 6,1 7,5l0 0c4,15 8,31 12,46l0 0c6,21 11,42 16,62l0 0c5,18 9,35 14,53l0 0c1,5 3,11 5,16l0 0c0,3 0,5 0,10l0 0c-10,-6 -19,-11 -28,-16zm387 217c-15,-8 -29,-16 -43,-24l0 0c-35,-19 -68,-39 -103,-57l0 0c-9,-5 -10,-13 -12,-21l0 0c-4,-13 -7,-27 -11,-41l0 0c-5,-21 -11,-43 -16,-64l0 0c-3,-13 -7,-26 -10,-38l0 0c-5,-18 -9,-35 -14,-52l0 0c-3,-14 -7,-27 -11,-41l0 0c-3,-12 -5,-24 -9,-37l0 0c8,1 14,2 19,3l0 0c19,6 38,10 56,17l0 0c22,7 42,17 64,24l0 0c12,5 16,13 19,25l0 0c5,22 12,45 17,67l0 0c8,29 15,58 22,86l0 0c7,25 13,49 20,73l0 0c4,18 8,35 13,53l0 0c2,7 4,15 6,22l0 0c0,2 0,5 -1,7l0 0c-2,-1 -4,-1 -6,-2zm114 -222c-23,-18 -46,-36 -69,-55l0 0c0,0 0,-1 -2,-2l0 0c6,-4 12,-8 18,-11l0 0c35,-19 71,-35 109,-46l0 0c27,-8 54,-14 81,-19l0 0c50,-11 101,-10 152,-8l0 0c25,1 50,7 75,11l0 0c37,6 72,17 106,31l0 0c46,18 90,42 131,71l0 0c6,5 13,9 19,14l0 0c3,2 4,5 3,9l0 0c-11,24 -21,49 -31,73l0 0c-1,2 -3,4 -5,5l0 0c-14,-10 -27,-21 -41,-31l0 0c-29,-20 -60,-37 -92,-51l0 0c-29,-13 -58,-22 -88,-30l0 0c-19,-4 -38,-7 -57,-9l0 0c-20,-3 -40,-5 -60,-5l0 0c-24,0 -47,2 -71,4l0 0c-14,2 -28,4 -42,7l0 0c-15,3 -29,6 -43,10l0 0c-30,8 -58,20 -86,33l0 0c0,0 -1,0 -2,0l0 0c0,0 0,0 0,0l0 0c-2,0 -4,0 -5,-1zm-682 84c-12,-26 -24,-52 -35,-79l0 0c-9,-22 -15,-46 -23,-70l0 0c-3,-13 -6,-26 -9,-39l0 0c0,-2 1,-4 1,-6l0 0c2,0 5,0 7,1l0 0c30,17 60,34 90,51l0 0c53,30 105,59 157,88l0 0c3,2 5,3 9,6l0 0c-4,2 -6,4 -9,4l0 0c-22,6 -44,12 -66,18l0 0c-21,5 -42,10 -63,16l0 0c-17,4 -33,9 -50,13l0 0c-1,1 -3,1 -3,1l0 0c-3,0 -5,-1 -6,-4zm712 219c-35,-19 -70,-39 -105,-59l0 0c-5,-2 -8,-5 -9,-11l0 0c-4,-18 -9,-36 -14,-54l0 0c-4,-17 -9,-34 -13,-51l0 0c-6,-21 -11,-42 -16,-62l0 0c-5,-18 -10,-35 -14,-52l0 0c-5,-18 -9,-35 -13,-53l0 0c-3,-13 -7,-25 -11,-38l0 0c0,-1 0,-1 0,-2l0 0c0,-3 0,-6 0,-8l0 0c3,0 6,0 8,2l0 0c35,17 67,39 97,62l0 0c13,10 26,20 38,31l0 0c4,4 7,11 9,17l0 0c6,24 12,48 19,72l0 0c4,16 9,32 13,49l0 0c5,16 8,33 13,49l0 0c5,20 10,39 16,59l0 0c4,17 9,34 14,52l0 0c1,4 2,9 3,14l0 0c-1,0 -2,1 -3,1l0 0c-11,-6 -21,-12 -32,-18zm54 -214c-19,-22 -40,-44 -60,-66l0 0c-4,-5 -4,-7 2,-10l0 0c17,-7 34,-15 51,-21l0 0c22,-7 44,-13 66,-17l0 0c32,-7 65,-10 99,-12l0 0c27,3 54,4 81,9l0 0c67,10 130,33 188,70l0 0c22,13 41,30 62,45l0 0c5,3 6,7 2,12l0 0c-16,25 -31,49 -47,74l0 0c-3,5 -6,5 -11,1l0 0c-26,-24 -55,-44 -86,-60l0 0c-30,-16 -62,-28 -95,-35l0 0c-36,-8 -71,-13 -108,-11l0 0c-30,1 -61,5 -90,13l0 0c-13,4 -26,8 -39,13l0 0c-2,0 -3,1 -5,1l0 0c-4,0 -7,-2 -10,-6zm119 311c-17,-9 -34,-18 -50,-28l0 0c-20,-11 -39,-21 -58,-32l0 0c-3,-2 -7,-7 -8,-10l0 0c-7,-24 -12,-49 -19,-73l0 0c-7,-27 -15,-54 -22,-82l0 0c-5,-16 -9,-33 -13,-49l0 0c-6,-24 -13,-47 -19,-70l0 0c-2,-5 -2,-9 -3,-14l0 0c0,0 1,-1 2,-1l0 0c4,4 9,8 12,12l0 0c20,23 41,46 59,70l0 0c22,29 42,59 58,92l0 0c13,27 25,53 37,80l0 0c7,15 11,32 16,48l0 0c4,12 8,25 11,37l0 0c2,5 3,11 4,16l0 0c0,4 -1,6 -2,6l0 0c-1,0 -3,-1 -5,-2zm-802 -192c-23,-28 -45,-58 -63,-90l0 0c-3,-3 -5,-8 -7,-13l0 0c13,-3 25,-6 37,-10l0 0c17,-4 35,-9 52,-13l0 0c21,-6 41,-11 62,-16l0 0c17,-5 35,-10 53,-14l0 0c4,-1 9,0 12,1l0 0c38,21 76,43 113,64l0 0c10,5 20,11 29,16l0 0c2,1 3,3 4,5l0 0c-2,1 -3,3 -5,3l0 0c-22,6 -44,12 -66,17l0 0c-17,5 -34,9 -52,13l0 0c-17,5 -33,10 -50,14l0 0c-13,3 -27,6 -40,10l0 0c-17,4 -33,9 -50,13l0 0c-6,2 -12,3 -18,5l0 0c-1,0 -2,0 -3,0l0 0c-3,0 -6,-2 -8,-5zm841 -123c25,2 49,4 73,8l0 0c53,10 102,30 147,61l0 0c15,11 29,23 44,35l0 0c4,3 5,7 1,11l0 0c-17,19 -34,38 -51,57l0 0c-4,4 -7,4 -11,0l0 0c-16,-15 -34,-28 -54,-40l0 0c-21,-12 -43,-21 -66,-28l0 0c-29,-8 -59,-12 -89,-11l0 0c-24,0 -49,3 -72,10l0 0c-10,3 -11,2 -16,-6l0 0c-13,-21 -27,-42 -41,-63l0 0c-3,-5 -3,-8 3,-9l0 0c17,-6 34,-11 51,-15l0 0c27,-6 54,-9 81,-9l0 0c0,0 0,-1 0,-1zm-713 244c-37,-27 -72,-58 -103,-92l0 0c-5,-6 -5,-7 3,-9l0 0c14,-4 28,-8 43,-11l0 0c13,-4 25,-7 38,-10l0 0c13,-4 27,-7 40,-11l0 0c17,-4 35,-9 52,-13l0 0c14,-4 27,-7 41,-11l0 0c13,-3 25,-6 38,-10l0 0c12,-3 25,-7 37,-10l0 0c3,0 6,1 8,2l0 0c36,20 72,40 108,61l0 0c13,7 26,14 39,22l0 0c3,1 5,3 8,6l0 0c-11,3 -20,6 -29,8l0 0c-17,4 -34,9 -51,13l0 0c-18,5 -36,9 -53,14l0 0c-18,4 -35,9 -52,13l0 0c-17,5 -33,9 -49,13l0 0c-22,6 -43,11 -64,17l0 0c-14,3 -29,7 -43,10l0 0c-1,0 -2,0 -2,0l0 0c-3,0 -7,0 -9,-2zm670 -40c-8,-19 -16,-39 -25,-58l0 0c-2,-6 -5,-12 -8,-17l0 0c-4,-6 -1,-8 4,-9l0 0c23,-5 47,-10 61,-9l0 0c83,1 146,25 200,73l0 0c5,5 6,7 0,12l0 0c-21,17 -43,34 -64,51l0 0c-3,3 -6,1 -8,-1l0 0c-15,-12 -32,-21 -49,-28l0 0c-16,-6 -32,-9 -49,-12l0 0c-18,-2 -36,1 -54,2l0 0c0,0 -1,0 -1,0l0 0c-3,0 -5,-1 -7,-4zm-506 130c-42,-16 -83,-37 -121,-61l0 0c-4,-2 -7,-4 -10,-6l0 0c-1,-1 -3,-3 -2,-4l0 0c0,-1 2,-3 3,-3l0 0c11,-3 23,-6 34,-9l0 0c18,-5 35,-9 52,-13l0 0c23,-6 45,-12 67,-18l0 0c17,-4 33,-8 50,-13l0 0c13,-3 26,-6 39,-10l0 0c13,-3 27,-7 40,-10l0 0c17,-5 35,-8 51,-14l0 0c10,-3 17,1 24,5l0 0c41,23 83,46 124,69l0 0c2,2 5,3 9,6l0 0c-3,2 -5,4 -7,4l0 0c-17,5 -34,9 -51,13l0 0c-17,5 -33,9 -50,13l0 0c-17,5 -34,9 -51,14l0 0c-17,4 -33,8 -50,12l0 0c-17,5 -34,9 -51,14l0 0c-18,5 -35,9 -53,14l0 0c-5,1 -10,2 -16,4l0 0c-2,0 -4,1 -6,1l0 0c-9,0 -17,-5 -25,-8zm538 -21c-2,-11 -4,-22 -7,-33l0 0c-4,-12 -7,-24 -10,-36l0 0c-2,-5 -4,-10 -5,-16l0 0c45,-15 117,10 136,35l0 0c-17,10 -35,21 -52,31l0 0c-17,9 -34,17 -51,25l0 0c-2,1 -3,1 -4,1l0 0c-3,0 -6,-2 -7,-7zm-475 42l-1 -3c8,-2 16,-4 24,-6l0 0c17,-5 35,-9 52,-14l0 0c14,-4 28,-7 42,-11l0 0c13,-3 26,-6 38,-10l0 0c18,-4 36,-9 54,-13l0 0c20,-6 41,-11 61,-17l0 0c17,-4 33,-8 50,-12l0 0c2,-1 5,-1 7,1l0 0c38,21 76,42 114,63l0 0c1,1 2,2 4,4l0 0c-45,18 -90,29 -136,36l0 0c-38,7 -76,10 -114,10l0 0c-66,0 -131,-10 -195,-28l0 0z"/>
   <path class="fil4" d="M3117 2254l52 0 0 -322c0,-122 107,-223 242,-223l0 -52c-161,0 -294,122 -294,275l0 0 0 322z"/>
   <path class="fil5" d="M2259 1940l0 -1c0,-151 -133,-270 -293,-270l0 52c135,0 241,100 242,218l0 0 0 0 -5 372 52 0 4 -371z"/>
   <path class="fil6" d="M2372 1060c0,0 82,6 120,67l0 0c18,28 20,57 20,72l0 0c0,0 207,0 246,185l360 -259c-38,-43 -43,-111 -43,-111l0 0 -703 46z"/>
   <path class="fil7" d="M2758 1467c0,0 304,33 324,298l157 -535c-57,-16 -97,-70 -97,-70l0 0 -384 307z"/>
   <path class="fil8" d="M2330 1843l0 0 -8 452 -1 25 52 1 9 -478 0 0c1,-152 136,-278 307,-278l0 0c171,0 307,126 307,278l0 0 0 0 1 392 52 -1 -1 -391c0,-184 -162,-330 -359,-330 -196,0 -358,146 -359,330l0 0z"/>
   <path class="fil9" d="M3416 2303l0 -640c0,-2 -3,-5 -5,-5l0 0c-3,0 -6,3 -6,5l0 0 0 640c0,358 -321,650 -718,650l0 0c-397,0 -717,-292 -718,-650l0 0 0 -1069 0 -112c0,-39 10,-76 31,-108l0 0c26,-39 70,-78 151,-78l0 0 1 0c152,0 159,188 159,218l0 0c0,3 0,4 0,4l0 0 7 5c0,0 7,-3 17,-6l0 0c11,-3 25,-6 40,-6l0 0c21,0 43,5 60,25l0 0c16,19 21,38 21,56l0 0c0,28 -13,50 -13,50l0 0c-1,2 0,4 1,6l0 0c1,1 4,2 6,1l0 0c0,0 10,-4 27,-9l0 0c16,-4 38,-9 63,-9l0 0c40,0 85,12 121,54l0 0c33,40 42,86 42,123l0 0c0,39 -10,68 -10,68l0 0c-1,3 1,6 3,7l0 0c3,1 6,-1 7,-4l0 0c0,0 10,-30 10,-71l0 0c0,-39 -9,-87 -45,-130l0 0c-37,-45 -86,-57 -128,-57l0 0c-35,0 -66,8 -82,14l0 0c4,-10 8,-25 8,-43l0 0c0,-20 -5,-42 -23,-63l0 0c-19,-22 -45,-29 -68,-29l0 0c-23,0 -43,7 -54,10l0 0c-1,-39 -11,-222 -169,-224l0 0 -1 0c0,0 0,0 0,0l0 0c-84,0 -133,41 -160,82l0 0c-22,34 -32,74 -32,114l0 0 0 112 0 1069c0,365 326,660 728,661l0 0c402,-1 729,-296 729,-661z"/>
   <path class="fil10" d="M3109 854l-48 0 -866 0c116,30 146,97 153,175l0 0 731 -51c-6,-58 30,-124 30,-124z"/>
   <path class="fil11" d="M3270 1241l-127 500c65,-138 233,-150 280,-128l0 0 0 -295 0 -83c-53,23 -153,6 -153,6l0 0z"/>
   <path class="fil12" d="M3423 854l-263 0c-25,37 -40,83 -40,132l0 0c0,130 119,256 298,207l0 0 5 -339z"/>
  </g>
 </g>
</svg>
