<?xml version="1.0" encoding="UTF-8"?>
<!DOCTYPE svg PUBLIC "-//W3C//DTD SVG 1.1//EN" "http://www.w3.org/Graphics/SVG/1.1/DTD/svg11.dtd">
<!-- Creator: CorelDRAW X7 -->
<svg xmlns="http://www.w3.org/2000/svg" xml:space="preserve" width="101.607mm" height="67.2056mm" version="1.1" style="shape-rendering:geometricPrecision; text-rendering:geometricPrecision; image-rendering:optimizeQuality; fill-rule:evenodd; clip-rule:evenodd"
viewBox="0 0 10161 6721"
 xmlns:xlink="http://www.w3.org/1999/xlink">
 <defs>
  <style type="text/css">
   <![CDATA[
    .str0 {stroke:#573838;stroke-width:7.62}
    .fil1 {fill:#573838}
    .fil0 {fill:#573838;fill-rule:nonzero}
    .fil8 {fill:url(#id0)}
    .fil6 {fill:url(#id1)}
    .fil5 {fill:url(#id2)}
    .fil10 {fill:url(#id3)}
    .fil2 {fill:url(#id4)}
    .fil3 {fill:url(#id5)}
    .fil7 {fill:url(#id6)}
    .fil9 {fill:url(#id7)}
    .fil11 {fill:url(#id8)}
    .fil4 {fill:url(#id9)}
   ]]>
  </style>
  <linearGradient id="id0" gradientUnits="userSpaceOnUse" x1="4163.4" y1="2266.06" x2="5987.81" y2="2266.06">
   <stop offset="0" style="stop-opacity:1; stop-color:#F6D3A3"/>
   <stop offset="1" style="stop-opacity:1; stop-color:#E3B173"/>
  </linearGradient>
  <linearGradient id="id1" gradientUnits="userSpaceOnUse" xlink:href="#id0" x1="5164.1" y1="1662.19" x2="5765.84" y2="1662.19">
  </linearGradient>
  <linearGradient id="id2" gradientUnits="userSpaceOnUse" xlink:href="#id0" x1="4680.72" y1="1332.57" x2="5615.01" y2="1332.57">
  </linearGradient>
  <linearGradient id="id3" gradientUnits="userSpaceOnUse" xlink:href="#id0" x1="5557.49" y1="1812.17" x2="6086.15" y2="1576.68">
  </linearGradient>
  <linearGradient id="id4" gradientUnits="userSpaceOnUse" xlink:href="#id0" x1="4169.9" y1="3092.83" x2="5981.31" y2="3092.83">
  </linearGradient>
  <linearGradient id="id5" gradientUnits="userSpaceOnUse" xlink:href="#id0" x1="5613.82" y1="2279.41" x2="5981.29" y2="2279.41">
  </linearGradient>
  <linearGradient id="id6" gradientUnits="userSpaceOnUse" xlink:href="#id0" x1="4617.66" y1="2231.61" x2="5528.33" y2="2231.61">
  </linearGradient>
  <linearGradient id="id7" gradientUnits="userSpaceOnUse" xlink:href="#id0" x1="4458.92" y1="1009.65" x2="5603.15" y2="1009.65">
  </linearGradient>
  <linearGradient id="id8" gradientUnits="userSpaceOnUse" xlink:href="#id0" x1="5617.39" y1="1119.31" x2="5997.31" y2="1119.31">
  </linearGradient>
  <linearGradient id="id9" gradientUnits="userSpaceOnUse" xlink:href="#id0" x1="4172.58" y1="2323.07" x2="4540.06" y2="2323.07">
  </linearGradient>
 </defs>
 <g id="Layer_x0020_1">
  <metadata id="CorelCorpID_0Corel-Layer"/>
  <g id="_1910140969392">
   <g>
    <path class="fil0" d="M280 5456c-7,25 -5,38 7,38 6,0 17,-4 32,-11 55,-31 115,-46 180,-46 64,0 129,14 195,41 65,28 126,65 183,111 16,14 27,19 31,15 4,-3 2,-14 -7,-33l-367 -822c-8,-19 -17,-29 -27,-29 -10,0 -18,11 -25,34l-202 702zm8873 -786c0,26 0,217 -1,572 0,356 0,567 0,634 0,37 5,63 17,76 12,14 31,21 58,21 14,0 44,0 88,1 44,0 72,0 84,0 72,0 140,-9 203,-28 62,-19 117,-45 162,-78 46,-33 87,-71 123,-115 35,-44 64,-92 86,-144 21,-52 38,-105 49,-159 11,-55 17,-110 17,-166 0,-68 -8,-134 -23,-198 -16,-64 -40,-126 -74,-185 -34,-60 -75,-111 -124,-155 -49,-45 -109,-80 -181,-106 -72,-27 -151,-40 -238,-40 -12,0 -40,0 -84,1 -44,0 -74,1 -88,1 -23,0 -41,4 -52,14 -12,10 -19,28 -22,54zm-114 -97l449 0c94,0 183,18 266,54 83,35 154,84 214,146 60,63 107,138 141,226 34,89 52,183 52,285 0,101 -18,196 -52,284 -34,89 -81,164 -141,226 -60,62 -131,111 -214,147 -83,36 -172,53 -266,53l-449 0 0 -1421zm-1158 883c-7,25 -5,38 7,38 6,0 17,-4 32,-11 55,-31 115,-46 180,-46 64,0 129,14 195,41 65,28 126,65 183,111 16,14 27,19 31,15 4,-3 2,-14 -7,-33l-367 -822c-8,-19 -17,-29 -27,-29 -10,0 -18,11 -25,34l-202 702zm-155 538l-125 0 484 -1354 -29 -67 125 0 634 1421 -125 0 -104 -231c-22,-50 -59,-95 -110,-134 -50,-39 -105,-68 -164,-88 -58,-20 -115,-30 -170,-30 -94,0 -181,30 -263,88 -15,12 -30,30 -45,56 -15,25 -26,50 -32,74l-76 265zm-1830 -1421l125 0 555 1245c8,20 17,30 27,30 10,0 19,-11 25,-34l140 -484c5,-21 7,-43 6,-68 -2,-25 -7,-47 -15,-66l-278 -623 125 0 202 452c8,19 16,28 25,28 10,0 18,-10 23,-31l129 -449 125 0 -199 564c-7,20 -10,42 -9,67 0,25 5,47 14,66l244 548c8,20 17,30 27,30 10,0 19,-11 26,-34l356 -1241 125 0 -503 1421 -77 0 -254 -568c-8,-19 -17,-28 -28,-28 -9,0 -18,9 -24,29l-201 567 -76 0 -635 -1421zm-1219 1421l0 -1421 654 0c50,0 96,5 139,15 42,11 78,24 108,41 30,16 56,36 80,59 23,23 42,46 56,71 14,24 26,50 36,77 9,27 16,52 19,75 4,23 6,46 6,67 0,22 -2,44 -6,67 -3,23 -10,48 -19,75 -10,27 -22,52 -36,76 -14,24 -33,48 -56,71 -24,23 -50,42 -80,59 -30,17 -66,30 -108,41 -43,10 -89,16 -139,16l-41 0c-10,0 -18,1 -23,2 -4,2 -6,5 -5,8 1,4 3,8 8,12 4,5 11,11 20,18 24,19 50,44 78,75 28,32 53,61 74,88 21,28 51,68 91,121 2,3 4,6 6,8 2,2 3,5 6,8 2,3 4,6 6,8 41,56 87,108 136,156 50,48 92,84 127,107l-160 0c-27,-16 -56,-40 -88,-71 -31,-32 -61,-66 -90,-103 -29,-37 -58,-76 -89,-117 -30,-41 -60,-80 -89,-117 -29,-38 -58,-72 -85,-102 -28,-31 -55,-55 -83,-74 -27,-18 -53,-27 -76,-27l-127 0 0 -28 279 0c140,0 248,-34 322,-100 74,-66 111,-159 111,-277 0,-118 -37,-210 -111,-276 -74,-67 -182,-100 -322,-100l-341 0c-28,0 -47,5 -59,17 -11,12 -16,36 -16,72l1 1303 -114 0zm-447 -1421l114 0 0 1421 -114 0 0 -1421zm-1314 1421l-114 0 0 -1421 114 0 0 748c60,-70 135,-122 227,-158 92,-35 189,-53 290,-53 135,0 251,28 350,84l0 -621 114 0 0 1421 -114 0 0 -685c0,-50 -24,-89 -73,-116 -48,-26 -111,-40 -187,-40 -43,0 -88,5 -134,13 -46,9 -92,22 -137,38 -45,17 -88,38 -128,63 -41,26 -76,55 -107,87 -31,31 -56,68 -74,109 -18,42 -27,86 -27,132l0 399zm-1555 -299c0,-37 10,-68 30,-92 21,-24 46,-36 74,-36 23,0 43,8 61,23 -38,13 -57,45 -57,95 0,50 23,99 67,147 45,48 104,87 178,117 74,30 152,45 233,45 49,0 97,-4 143,-14 46,-9 88,-24 128,-43 39,-20 74,-43 103,-71 29,-28 52,-61 69,-100 16,-39 25,-81 25,-127 0,-36 -6,-70 -16,-99 -10,-30 -23,-55 -39,-76 -16,-21 -38,-39 -65,-56 -28,-17 -54,-31 -79,-41 -25,-11 -57,-21 -96,-30 -39,-9 -72,-16 -102,-21 -29,-5 -65,-11 -109,-18 -38,-6 -68,-11 -88,-14 -20,-3 -47,-9 -83,-16 -36,-8 -63,-14 -83,-21 -19,-6 -43,-15 -72,-26 -30,-11 -52,-22 -68,-34 -17,-12 -34,-27 -54,-45 -19,-17 -34,-36 -44,-56 -10,-20 -18,-44 -25,-71 -7,-27 -11,-56 -11,-87 0,-53 11,-102 34,-146 22,-43 51,-80 88,-109 37,-28 80,-53 129,-73 49,-20 100,-34 153,-42 52,-9 105,-13 161,-13 47,0 94,2 141,8 47,6 94,15 141,27 46,13 87,29 123,47 35,19 64,42 86,71 22,29 33,60 33,95 0,50 -19,82 -57,95 -13,-65 -44,-121 -92,-169 -49,-48 -107,-85 -177,-109 -69,-25 -143,-37 -222,-37 -137,0 -244,30 -322,91 -78,60 -117,146 -117,257 0,29 5,54 15,77 11,23 27,42 48,58 22,16 45,30 69,42 24,11 55,22 91,31 37,9 71,17 102,23 31,6 69,13 113,21 42,7 74,12 96,16 22,5 53,11 92,19 40,9 71,17 93,25 23,7 50,18 83,31 33,13 59,26 78,40 19,14 39,31 62,51 22,21 39,42 51,65 11,24 21,50 29,81 8,30 12,63 12,98 0,57 -10,109 -32,156 -21,47 -50,86 -86,119 -37,33 -80,60 -128,83 -49,23 -101,39 -155,50 -55,10 -111,16 -169,16 -115,0 -217,-14 -306,-41 -89,-28 -158,-67 -207,-116 -49,-50 -73,-107 -73,-171zm-1236 299l-125 0 484 -1354 -29 -67 125 0 634 1421 -125 0 -104 -231c-22,-50 -59,-95 -110,-134 -50,-39 -105,-68 -164,-88 -58,-20 -115,-30 -170,-30 -94,0 -181,30 -263,88 -15,12 -30,30 -45,56 -15,25 -26,50 -32,74l-76 265z"/>
    <path class="fil0 str0" d="M2542 6710l-28 0 0 -359 28 0 0 189c15,-18 34,-31 58,-40 23,-9 47,-13 73,-13 33,0 63,7 88,21l0 -157 28 0 0 359 -28 0 0 -173c0,-13 -6,-23 -19,-29 -12,-7 -28,-10 -47,-10 -11,0 -22,1 -34,3 -11,2 -23,5 -34,9 -11,5 -22,10 -32,16 -11,7 -20,14 -27,22 -8,8 -14,17 -19,28 -4,10 -7,21 -7,33l0 101zm4814 -76c0,-9 2,-17 7,-23 6,-6 12,-9 19,-9 6,0 11,2 15,6 -9,3 -14,11 -14,24 0,12 6,25 17,37 11,12 26,22 45,29 18,8 38,12 58,12 13,0 25,-2 36,-4 12,-2 23,-6 33,-11 10,-5 18,-11 26,-18 7,-7 13,-15 17,-25 4,-10 6,-20 6,-32 0,-9 -1,-18 -4,-25 -2,-7 -6,-14 -10,-19 -3,-5 -9,-10 -16,-14 -7,-5 -13,-8 -20,-11 -6,-2 -14,-5 -24,-7 -10,-2 -18,-4 -26,-5 -7,-2 -16,-3 -27,-5 -10,-2 -17,-3 -22,-4 -5,0 -12,-2 -21,-4 -9,-1 -16,-3 -21,-5 -5,-1 -11,-3 -18,-6 -8,-3 -13,-6 -18,-9 -4,-3 -8,-7 -13,-11 -5,-5 -9,-9 -11,-14 -3,-6 -5,-11 -7,-18 -1,-7 -2,-14 -2,-22 0,-14 3,-26 8,-37 6,-11 13,-20 23,-27 9,-8 20,-14 32,-19 13,-5 25,-8 38,-11 14,-2 27,-3 41,-3 12,0 24,1 36,2 12,2 23,4 35,7 12,3 22,7 31,12 9,5 16,11 22,18 6,7 8,15 8,24 0,12 -4,20 -14,24 -3,-17 -11,-31 -23,-43 -13,-12 -27,-21 -45,-27 -17,-7 -36,-10 -56,-10 -34,0 -61,8 -81,23 -20,15 -30,37 -30,65 0,7 2,14 4,19 3,6 7,11 12,15 6,4 12,8 18,11 6,3 14,5 23,7 9,3 17,5 25,6 8,2 18,4 29,5 11,2 19,4 24,5 6,1 13,2 23,5 10,2 18,4 24,6 5,2 12,4 21,7 8,4 14,7 19,11 5,3 10,7 16,13 6,5 10,10 13,16 3,6 5,13 7,20 2,8 3,16 3,25 0,14 -3,27 -8,39 -5,12 -13,22 -22,30 -9,8 -20,15 -32,21 -12,6 -25,10 -39,13 -14,2 -28,4 -43,4 -28,0 -54,-4 -77,-11 -22,-7 -39,-16 -52,-29 -12,-12 -18,-27 -18,-43zm-323 -283l276 0 0 32c-13,-6 -32,-11 -56,-17 -24,-5 -40,-7 -48,-7 -7,0 -12,1 -15,5 -3,3 -4,10 -4,19l0 327 -29 0 0 -327c0,-9 -2,-16 -5,-19 -2,-4 -7,-5 -14,-5 -8,0 -24,2 -48,7 -25,6 -43,11 -57,17l0 -32zm-327 359l0 -359 164 0c13,0 25,2 35,4 11,3 20,6 28,10 7,5 14,10 20,15 6,6 10,12 14,18 4,6 7,13 9,20 2,6 4,13 5,19 1,5 1,11 1,17 0,5 0,11 -1,16 -1,6 -3,12 -5,19 -2,7 -5,13 -9,19 -4,6 -8,12 -14,18 -6,6 -13,11 -20,15 -8,4 -17,8 -28,10 -10,3 -22,4 -35,4l-10 0c-3,0 -5,1 -6,1 -1,1 -1,1 -1,2 0,1 1,2 2,3 1,1 3,3 5,5 6,4 13,11 20,19 7,7 13,15 18,22 6,7 13,17 23,30 1,1 1,2 2,2 0,1 1,1 1,2 1,1 1,2 2,2 10,14 22,27 34,40 13,12 23,21 32,27l-40 0c-7,-5 -14,-11 -22,-19 -8,-8 -16,-16 -23,-25 -7,-10 -15,-19 -22,-30 -8,-10 -16,-20 -23,-29 -7,-10 -14,-18 -21,-26 -7,-8 -14,-14 -21,-19 -7,-4 -14,-7 -19,-7l-32 0 0 -7 70 0c35,0 62,-8 81,-25 19,-17 28,-40 28,-69 0,-30 -9,-53 -28,-70 -19,-17 -46,-25 -81,-25l-86 0c-7,0 -12,1 -15,4 -3,3 -4,9 -4,18l0 329 -28 0zm-391 -253c-8,23 -12,47 -12,73 0,27 4,51 12,74 8,22 18,41 32,56 13,16 29,28 48,37 18,8 38,13 58,13 21,0 40,-5 59,-13 18,-9 34,-21 48,-37 13,-15 24,-34 32,-56 8,-23 12,-47 12,-74 0,-26 -4,-50 -12,-73 -8,-22 -19,-41 -32,-56 -14,-16 -30,-28 -48,-37 -19,-8 -38,-13 -59,-13 -20,0 -40,5 -58,13 -19,9 -35,21 -48,37 -14,15 -24,34 -32,56zm138 260c-19,0 -38,-3 -56,-9 -18,-6 -35,-14 -49,-25 -15,-11 -28,-24 -39,-39 -11,-15 -19,-32 -26,-51 -6,-20 -9,-41 -9,-63 0,-21 3,-42 9,-62 7,-19 15,-36 26,-51 11,-15 24,-28 39,-39 14,-11 31,-20 49,-25 18,-6 37,-9 56,-9 25,0 48,5 70,14 22,9 41,21 57,37 16,16 29,36 38,59 10,24 14,49 14,76 0,28 -4,53 -14,77 -9,23 -22,43 -38,59 -16,16 -35,28 -57,37 -22,9 -45,14 -70,14zm-531 -83c0,-9 2,-17 8,-23 5,-6 11,-9 18,-9 6,0 11,2 16,6 -10,3 -15,11 -15,24 0,12 6,25 17,37 11,12 26,22 45,29 19,8 38,12 59,12 12,0 24,-2 36,-4 11,-2 22,-6 32,-11 10,-5 19,-11 26,-18 7,-7 13,-15 17,-25 4,-10 7,-20 7,-32 0,-9 -2,-18 -4,-25 -3,-7 -6,-14 -10,-19 -4,-5 -10,-10 -17,-14 -7,-5 -13,-8 -20,-11 -6,-2 -14,-5 -24,-7 -9,-2 -18,-4 -25,-5 -8,-2 -17,-3 -28,-5 -10,-2 -17,-3 -22,-4 -5,0 -12,-2 -21,-4 -9,-1 -16,-3 -21,-5 -5,-1 -11,-3 -18,-6 -8,-3 -13,-6 -17,-9 -4,-3 -9,-7 -14,-11 -5,-5 -8,-9 -11,-14 -2,-6 -5,-11 -6,-18 -2,-7 -3,-14 -3,-22 0,-14 3,-26 8,-37 6,-11 14,-20 23,-27 9,-8 20,-14 32,-19 13,-5 26,-8 39,-11 13,-2 26,-3 40,-3 12,0 24,1 36,2 12,2 24,4 35,7 12,3 22,7 31,12 9,5 17,11 22,18 6,7 9,15 9,24 0,12 -5,20 -15,24 -3,-17 -11,-31 -23,-43 -12,-12 -27,-21 -45,-27 -17,-7 -36,-10 -56,-10 -34,0 -61,8 -81,23 -20,15 -29,37 -29,65 0,7 1,14 4,19 2,6 6,11 12,15 5,4 11,8 17,11 6,3 14,5 23,7 9,3 18,5 26,6 7,2 17,4 28,5 11,2 19,4 24,5 6,1 14,2 24,5 10,2 17,4 23,6 6,2 13,4 21,7 8,4 15,7 19,11 5,3 10,7 16,13 6,5 10,10 13,16 3,6 5,13 7,20 2,8 3,16 3,25 0,14 -2,27 -8,39 -5,12 -12,22 -22,30 -9,8 -19,15 -32,21 -12,6 -25,10 -39,13 -14,2 -28,4 -42,4 -29,0 -55,-4 -77,-11 -23,-7 -40,-16 -53,-29 -12,-12 -18,-27 -18,-43zm-302 76l0 -359 248 0 0 32c-18,-6 -48,-12 -90,-17 -41,-5 -78,-7 -111,-7 -6,0 -11,1 -14,5 -3,3 -5,10 -5,19l0 113c0,5 2,10 5,13 4,3 8,5 13,5l167 0 0 30c-21,-5 -50,-10 -85,-15 -35,-4 -62,-6 -81,-6 -6,0 -10,1 -13,4 -4,2 -5,6 -5,11l-1 140c0,9 2,16 5,19 3,4 8,5 14,5 33,0 70,-2 111,-7 42,-5 72,-11 90,-17l0 32 -248 0zm-349 0l0 -359 165 0c12,0 24,2 34,4 11,3 20,6 28,10 7,5 14,10 20,15 6,6 11,12 14,18 4,6 7,13 9,20 3,6 4,13 5,19 1,5 1,11 1,17 0,5 0,11 -1,16 -1,6 -2,12 -5,19 -2,7 -5,13 -9,19 -3,6 -8,12 -14,18 -6,6 -13,11 -20,15 -8,4 -17,8 -28,10 -10,3 -22,4 -34,4l-11 0c-2,0 -4,1 -6,1 -1,1 -1,1 -1,2 0,1 1,2 2,3 1,1 3,3 5,5 6,4 13,11 20,19 7,7 13,15 18,22 6,7 13,17 23,30 1,1 2,2 2,2 0,1 1,1 1,2 1,1 2,2 2,2 10,14 22,27 34,40 13,12 23,21 32,27l-40 0c-7,-5 -14,-11 -22,-19 -8,-8 -16,-16 -23,-25 -7,-10 -15,-19 -22,-30 -8,-10 -15,-20 -23,-29 -7,-10 -14,-18 -21,-26 -7,-8 -14,-14 -21,-19 -7,-4 -13,-7 -19,-7l-32 0 0 -7 70 0c35,0 62,-8 81,-25 19,-17 28,-40 28,-69 0,-30 -9,-53 -28,-70 -19,-17 -46,-25 -81,-25l-86 0c-7,0 -12,1 -15,4 -2,3 -4,9 -4,18l0 329 -28 0zm-527 -127c0,24 6,45 20,63 13,18 31,32 55,42 23,10 50,14 81,14 35,0 61,-2 78,-5 6,-2 9,-4 11,-8 1,-4 -1,-8 -5,-12 -11,-12 -31,-31 -58,-57 -27,-27 -46,-45 -55,-55 0,0 -2,-1 -4,-4 -3,-2 -6,-6 -10,-10 -4,-4 -8,-8 -13,-13 -5,-4 -9,-9 -14,-14l-14 -14c-6,-5 -12,-8 -19,-8 -4,0 -8,1 -11,3 -12,8 -22,19 -30,34 -8,15 -12,30 -12,44zm-29 9c0,-21 7,-40 19,-57 12,-18 27,-30 45,-37 11,-5 13,-12 6,-20 -19,-23 -28,-43 -28,-58 0,-13 3,-25 10,-35 6,-10 15,-18 27,-25 12,-6 26,-10 42,-13 15,-3 32,-5 51,-5 25,0 47,2 67,7 20,4 36,11 48,21 13,9 19,21 19,34 0,7 -1,12 -4,16 -2,4 -6,6 -13,8 -3,-10 -7,-19 -14,-29 -7,-9 -15,-17 -25,-24 -10,-7 -22,-13 -35,-17 -14,-4 -29,-7 -44,-7 -10,0 -19,1 -27,1 -8,1 -16,2 -25,3 -8,1 -16,3 -22,6 -7,2 -13,5 -18,9 -6,4 -10,8 -13,14 -3,5 -5,12 -5,19 -1,6 1,13 5,21 4,8 10,17 18,26 8,9 16,18 24,26 7,8 16,17 27,28 11,11 20,20 26,26l118 120c4,4 7,6 9,6 3,0 4,-4 4,-10 0,-43 -2,-76 -5,-98 -3,-22 -9,-42 -19,-61l33 0 0 168c0,5 1,10 3,16 2,6 6,10 10,14l24 25 -40 0c-1,-1 -2,-2 -3,-4 -1,-2 -3,-3 -3,-4 -3,-3 -7,-4 -13,-2 -15,5 -34,9 -56,12 -23,3 -46,5 -71,5 -24,0 -46,-4 -65,-10 -19,-7 -35,-16 -48,-27 -12,-11 -22,-24 -28,-40 -7,-15 -11,-31 -11,-48zm-497 42c0,-9 2,-17 8,-23 5,-6 11,-9 18,-9 6,0 11,2 16,6 -10,3 -15,11 -15,24 0,12 6,25 17,37 11,12 26,22 45,29 19,8 38,12 59,12 12,0 24,-2 36,-4 11,-2 22,-6 32,-11 10,-5 19,-11 26,-18 7,-7 13,-15 17,-25 4,-10 7,-20 7,-32 0,-9 -2,-18 -4,-25 -3,-7 -6,-14 -10,-19 -4,-5 -10,-10 -17,-14 -7,-5 -13,-8 -20,-11 -6,-2 -14,-5 -24,-7 -9,-2 -18,-4 -25,-5 -8,-2 -17,-3 -28,-5 -10,-2 -17,-3 -22,-4 -5,0 -12,-2 -21,-4 -9,-1 -16,-3 -21,-5 -5,-1 -11,-3 -18,-6 -8,-3 -13,-6 -17,-9 -4,-3 -9,-7 -14,-11 -5,-5 -8,-9 -11,-14 -2,-6 -5,-11 -6,-18 -2,-7 -3,-14 -3,-22 0,-14 3,-26 8,-37 6,-11 14,-20 23,-27 9,-8 20,-14 32,-19 13,-5 26,-8 39,-11 13,-2 26,-3 40,-3 12,0 24,1 36,2 12,2 24,4 35,7 12,3 22,7 31,12 9,5 17,11 22,18 6,7 9,15 9,24 0,12 -5,20 -15,24 -3,-17 -11,-31 -23,-43 -12,-12 -27,-21 -45,-27 -17,-7 -36,-10 -56,-10 -34,0 -61,8 -81,23 -20,15 -29,37 -29,65 0,7 1,14 4,19 2,6 6,11 12,15 5,4 11,8 17,11 6,3 14,5 23,7 9,3 18,5 26,6 7,2 17,4 28,5 11,2 19,4 24,5 6,1 14,2 24,5 10,2 17,4 23,6 6,2 13,4 21,7 8,4 15,7 19,11 5,3 10,7 16,13 6,5 10,10 13,16 3,6 5,13 7,20 2,8 3,16 3,25 0,14 -2,27 -8,39 -5,12 -12,22 -22,30 -9,8 -19,15 -32,21 -12,6 -25,10 -39,13 -14,2 -28,4 -42,4 -29,0 -55,-4 -77,-11 -23,-7 -40,-16 -53,-29 -12,-12 -18,-27 -18,-43zm-45 76l-248 0 0 -359 28 0 0 327c0,9 2,16 5,19 3,4 8,5 14,5 33,0 70,-2 111,-7 42,-5 72,-11 90,-17l0 32zm-573 0l0 -359 248 0 0 32c-18,-6 -48,-12 -90,-17 -41,-5 -78,-7 -111,-7 -7,0 -11,1 -14,5 -3,3 -5,10 -5,19l0 113c0,5 2,10 5,13 4,3 8,5 13,5l167 0 0 30c-21,-5 -50,-10 -85,-15 -35,-4 -62,-6 -81,-6 -6,0 -10,1 -13,4 -4,2 -5,6 -5,11l-1 140c0,9 2,16 5,19 3,4 7,5 14,5 33,0 70,-2 111,-7 42,-5 72,-11 90,-17l0 32 -248 0zm-353 -359l276 0 0 32c-13,-6 -32,-11 -56,-17 -24,-5 -40,-7 -48,-7 -7,0 -12,1 -15,5 -3,3 -4,10 -4,19l0 327 -29 0 0 -327c0,-9 -2,-16 -5,-19 -2,-4 -7,-5 -14,-5 -8,0 -24,2 -48,7 -25,6 -43,11 -57,17l0 -32zm-344 106c-8,23 -12,47 -12,73 0,27 4,51 12,74 8,22 19,41 32,56 14,16 30,28 48,37 18,8 38,13 58,13 21,0 40,-5 59,-13 18,-9 34,-21 48,-37 13,-15 24,-34 32,-56 8,-23 12,-47 12,-74 0,-26 -4,-50 -12,-73 -8,-22 -19,-41 -32,-56 -14,-16 -30,-28 -48,-37 -19,-8 -38,-13 -59,-13 -20,0 -40,5 -58,13 -18,9 -34,21 -48,37 -13,15 -24,34 -32,56zm138 260c-19,0 -38,-3 -56,-9 -18,-6 -34,-14 -49,-25 -15,-11 -28,-24 -39,-39 -11,-15 -19,-32 -25,-51 -6,-20 -9,-41 -9,-63 0,-21 3,-42 9,-62 6,-19 14,-36 25,-51 11,-15 24,-28 39,-39 15,-11 31,-20 49,-25 18,-6 37,-9 56,-9 25,0 48,5 70,14 22,9 41,21 57,37 16,16 29,36 38,59 10,24 14,49 14,76 0,28 -4,53 -14,77 -9,23 -22,43 -38,59 -16,16 -35,28 -57,37 -22,9 -45,14 -70,14z"/>
   </g>
   <g>
    <path class="fil1" d="M6197 3673c-20,21 -39,41 -60,61 -55,55 -115,105 -179,150 -506,361 -1168,371 -1694,44 -87,-54 -167,-117 -240,-188 -292,-265 -461,-629 -461,-1026l0 -2714 3032 0 0 1c-5,904 -7,1809 -7,2713 0,363 -140,699 -391,959z"/>
    <g>
     <path class="fil2" d="M5405 2621c-26,1 -51,3 -77,4l0 0c-7,1 -227,17 -405,147l0 0c-9,7 -20,14 -30,20l0 0c-3,2 -7,2 -10,1l0 0c-31,-11 -61,-23 -91,-33l0 0c-20,-7 -41,-12 -62,-17l0 0c-22,-5 -44,-10 -66,-13l0 0c-28,-5 -57,-7 -86,-10l0 0c-48,-4 -96,-3 -143,2l0 0c-31,3 -63,6 -94,12l0 0c-28,5 -56,13 -84,20l0 0c-19,5 -37,11 -55,17l0 0c-5,2 -33,15 -32,19l0 0c4,23 8,46 14,69l0 0c9,32 18,64 29,96l0 0c10,29 22,57 35,85l0 0c18,40 40,77 64,114l0 0c30,46 65,88 103,128l0 0c49,52 104,98 165,136l0 0c34,21 68,41 103,58l0 0c32,15 66,28 100,40l0 0c26,9 52,16 78,23l0 0c21,5 44,9 66,13l0 0c23,4 46,8 69,9l0 0c40,2 80,7 120,3l0 0c16,-2 33,-1 49,-3l0 0c25,-3 50,-7 75,-11l0 0c14,-2 27,-4 40,-8l0 0c22,-5 43,-11 64,-17l0 0c27,-9 55,-18 82,-28l0 0c18,-6 36,-16 53,-24l0 0c46,-22 90,-48 131,-77l0 0c39,-28 74,-58 108,-91l0 0c46,-45 87,-93 122,-146l0 0c27,-41 51,-83 70,-127l0 0c14,-32 26,-64 38,-97l0 0c7,-21 13,-43 19,-66l0 0c5,-19 9,-40 14,-60l0 0c2,-8 0,-15 -8,-20l0 0c-36,-21 -70,-45 -107,-64l0 0c-36,-19 -75,-36 -113,-50l0 0c-36,-13 -73,-22 -109,-32l0 0c-23,-6 -46,-10 -69,-14l0 0c-30,-4 -60,-6 -90,-8l0 0c-14,0 -28,-1 -42,-1l0 0c-13,0 -25,1 -38,1zm-384 246c-33,-19 -67,-38 -100,-56l0 0c-1,-1 -2,-2 -5,-4l0 0c9,-6 17,-12 26,-18l0 0c43,-27 87,-52 134,-71l0 0c37,-15 74,-28 112,-40l0 0c26,-8 52,-13 79,-18l0 0c38,-8 76,-13 114,-16l0 0c48,-3 94,-1 141,2l0 0c26,2 52,6 78,11l0 0c37,8 75,18 111,29l0 0c78,22 149,58 217,101l0 0c8,5 16,10 23,15l0 0c5,3 6,6 5,12l0 0c-4,15 -6,29 -10,44l0 0c-5,18 -10,37 -15,55l0 0c-2,8 -6,5 -10,2l0 0c-25,-17 -50,-35 -76,-51l0 0c-38,-23 -78,-42 -119,-57l0 0c-26,-9 -51,-18 -76,-25l0 0c-19,-5 -39,-9 -58,-13l0 0c-20,-3 -41,-7 -61,-10l0 0c-19,-2 -39,-3 -58,-4l0 0c-24,0 -48,-1 -72,0l0 0c-29,2 -58,6 -87,10l0 0c-22,4 -44,7 -65,13l0 0c-33,9 -66,20 -98,31l0 0c-41,15 -80,35 -118,57l0 0c-2,1 -4,3 -7,3l0 0c-1,0 -3,-1 -5,-2zm-257 238c-13,-8 -27,-16 -41,-23l0 0c-46,-26 -92,-52 -139,-78l0 0c-11,-6 -10,-16 -13,-25l0 0c-6,-23 -12,-46 -18,-68l0 0c-4,-17 -8,-33 -12,-50l0 0c-4,-16 -9,-32 -13,-48l0 0c-4,-17 -9,-35 -13,-53l0 0c0,0 0,0 -1,0l0 0c-3,-18 -3,-18 15,-18l0 0c1,0 78,6 116,10l0 0c10,1 19,3 29,4l0 0c6,1 9,3 11,9l0 0c6,23 12,46 18,69l0 0c7,27 14,53 20,80l0 0c7,26 14,53 21,80l0 0c7,25 13,51 20,77l0 0c3,9 6,19 8,29l0 0c0,2 -1,4 -1,6l0 0c-2,0 -5,0 -7,-1zm-253 -142c-41,-23 -81,-46 -122,-69l0 0c-49,-28 -99,-56 -148,-83l0 0c-7,-4 -13,-8 -20,-11l0 0c-2,-1 -4,-4 -4,-5l0 0c1,-2 3,-4 5,-5l0 0c18,-5 35,-11 53,-16l0 0c17,-4 35,-9 52,-12l0 0c17,-4 34,-6 51,-9l0 0c11,-2 22,-3 33,-4l0 0c23,-3 45,-4 67,-6l0 0c5,-1 8,0 9,5l0 0c5,20 10,39 15,59l0 0c7,25 14,51 21,77l0 0c5,22 11,44 16,66l0 0c2,7 5,13 6,20l0 0c1,3 0,7 0,12l0 0c-12,-7 -23,-13 -34,-19zm484 272c-18,-10 -36,-21 -54,-31l0 0c-43,-24 -85,-48 -128,-71l0 0c-12,-6 -13,-16 -16,-26l0 0c-5,-17 -9,-34 -13,-51l0 0c-7,-27 -14,-54 -21,-81l0 0c-4,-16 -8,-32 -12,-48l0 0c-6,-22 -11,-43 -17,-65l0 0c-5,-17 -9,-34 -14,-51l0 0c-3,-15 -7,-30 -11,-47l0 0c9,2 16,3 23,5l0 0c24,6 48,13 71,21l0 0c26,9 52,21 79,30l0 0c16,6 21,16 24,31l0 0c7,28 15,56 22,84l0 0c9,36 18,72 27,108l0 0c8,31 17,61 25,92l0 0c5,21 11,43 16,65l0 0c3,10 5,19 7,28l0 0c1,3 0,6 0,9l0 0c-3,-1 -6,-1 -8,-2zm143 -279c-29,-22 -57,-45 -86,-68l0 0c-1,0 -1,-1 -2,-4l0 0c7,-4 14,-9 22,-13l0 0c43,-23 88,-43 136,-57l0 0c33,-10 68,-17 102,-25l0 0c63,-13 126,-12 189,-9l0 0c32,2 63,8 95,13l0 0c46,8 90,22 133,39l0 0c58,23 112,53 163,89l0 0c8,6 16,12 24,18l0 0c4,3 6,6 4,11l0 0c-13,30 -26,61 -39,92l0 0c-1,2 -4,4 -6,6l0 0c-18,-13 -35,-26 -52,-39l0 0c-36,-25 -75,-47 -115,-64l0 0c-35,-16 -72,-28 -110,-37l0 0c-23,-6 -47,-9 -71,-12l0 0c-25,-4 -50,-7 -76,-6l0 0c-29,0 -59,3 -88,5l0 0c-18,2 -36,5 -53,9l0 0c-18,3 -36,8 -54,13l0 0c-37,10 -73,24 -107,41l0 0c-1,0 -2,0 -3,0l0 0c0,0 0,0 0,0l0 0c-2,0 -4,-1 -6,-2zm-854 105c-14,-32 -30,-65 -43,-98l0 0c-12,-29 -20,-58 -29,-88l0 0c-5,-16 -8,-33 -12,-49l0 0c0,-2 1,-5 1,-8l0 0c3,1 6,1 9,2l0 0c38,21 75,43 113,64l0 0c66,37 131,74 197,110l0 0c3,2 6,4 11,7l0 0c-5,3 -8,5 -11,6l0 0c-28,7 -56,15 -84,22l0 0c-25,6 -52,13 -78,19l0 0c-21,6 -42,12 -63,18l0 0c-2,0 -3,0 -4,0l0 0c-3,0 -5,-1 -7,-5zm892 275c-44,-25 -88,-49 -132,-74l0 0c-6,-3 -10,-7 -11,-14l0 0c-6,-22 -12,-45 -18,-68l0 0c-5,-21 -11,-42 -17,-64l0 0c-6,-26 -13,-52 -19,-77l0 0c-6,-22 -12,-44 -18,-66l0 0c-5,-21 -10,-43 -16,-65l0 0c-4,-16 -9,-32 -13,-49l0 0c0,0 -1,-1 -1,-1l0 0c0,-4 0,-8 0,-11l0 0c4,1 8,1 11,2l0 0c43,23 83,50 121,79l0 0c16,12 32,25 47,38l0 0c5,5 9,14 11,21l0 0c8,30 16,61 24,91l0 0c5,20 11,40 17,61l0 0c5,20 10,41 16,62l0 0c6,24 13,49 20,73l0 0c5,22 11,43 17,65l0 0c1,6 2,12 4,18l0 0c-1,0 -2,1 -4,1l0 0c-13,-7 -26,-15 -39,-22zm67 -268c-24,-28 -50,-56 -75,-83l0 0c-6,-6 -6,-9 3,-13l0 0c21,-9 42,-18 63,-25l0 0c27,-9 55,-17 83,-22l0 0c40,-8 82,-13 123,-15l0 0c34,4 68,5 102,11l0 0c84,13 163,42 236,88l0 0c27,17 52,37 78,56l0 0c6,4 6,9 2,15l0 0c-20,31 -40,62 -59,93l0 0c-4,7 -8,6 -13,1l0 0c-33,-30 -69,-55 -109,-75l0 0c-38,-20 -77,-35 -119,-44l0 0c-44,-10 -89,-16 -134,-14l0 0c-38,2 -77,6 -114,17l0 0c-16,5 -32,10 -48,16l0 0c-2,0 -4,1 -6,1l0 0c-5,0 -9,-2 -13,-7zm149 390c-21,-12 -42,-24 -63,-36l0 0c-24,-13 -48,-26 -72,-40l0 0c-4,-3 -9,-8 -10,-13l0 0c-8,-30 -16,-60 -24,-90l0 0c-9,-35 -19,-69 -28,-103l0 0c-5,-21 -10,-42 -16,-62l0 0c-8,-30 -16,-59 -24,-88l0 0c-1,-6 -2,-11 -4,-17l0 0c1,0 2,-1 3,-2l0 0c5,5 11,10 16,16l0 0c24,29 50,57 73,87l0 0c28,36 53,74 73,116l0 0c15,33 32,66 46,100l0 0c8,19 14,40 20,60l0 0c5,15 10,31 14,46l0 0c2,7 4,14 4,21l0 0c1,4 0,6 -2,6l0 0c-1,0 -3,0 -6,-1zm-1005 -241c-28,-36 -55,-73 -78,-112l0 0c-3,-5 -6,-10 -9,-17l0 0c16,-4 31,-8 46,-12l0 0c22,-6 44,-12 66,-18l0 0c26,-6 51,-13 77,-19l0 0c22,-6 44,-12 67,-18l0 0c4,-1 11,0 15,2l0 0c47,26 94,53 142,80l0 0c12,7 24,13 36,20l0 0c2,1 3,4 5,6l0 0c-3,2 -5,4 -7,4l0 0c-27,8 -54,15 -82,22l0 0c-22,5 -43,10 -65,16l0 0c-21,5 -42,11 -63,17l0 0c-17,4 -33,8 -50,12l0 0c-21,6 -42,11 -63,17l0 0c-7,2 -14,4 -22,6l0 0c-1,0 -2,0 -3,0l0 0c-5,0 -8,-2 -12,-6zm1054 -155c31,4 62,5 92,11l0 0c66,12 128,37 183,76l0 0c19,14 37,29 55,43l0 0c6,5 7,9 2,15l0 0c-22,24 -43,47 -64,71l0 0c-5,5 -9,5 -14,0l0 0c-20,-19 -43,-35 -67,-50l0 0c-26,-15 -54,-26 -83,-35l0 0c-36,-10 -74,-16 -112,-14l0 0c-30,1 -60,4 -90,13l0 0c-12,4 -13,2 -20,-8l0 0c-17,-27 -34,-53 -51,-78l0 0c-4,-7 -4,-10 3,-12l0 0c22,-7 43,-13 65,-19l0 0c33,-8 67,-11 101,-11l0 0c0,0 0,-1 0,-2zm-893 306c-46,-34 -90,-72 -129,-115l0 0c-6,-7 -6,-8 4,-11l0 0c17,-5 36,-10 54,-14l0 0c16,-5 31,-9 47,-13l0 0c17,-5 34,-9 50,-13l0 0c22,-6 44,-12 66,-17l0 0c17,-5 34,-9 51,-13l0 0c16,-4 31,-8 47,-13l0 0c16,-4 32,-8 47,-12l0 0c3,-1 7,1 10,2l0 0c45,25 90,51 136,76l0 0c16,9 32,18 48,28l0 0c3,2 6,4 10,8l0 0c-14,3 -25,7 -36,9l0 0c-22,6 -43,11 -65,17l0 0c-22,6 -44,11 -66,17l0 0c-22,6 -43,12 -65,17l0 0c-21,6 -41,11 -62,16l0 0c-26,7 -53,14 -79,21l0 0c-18,4 -36,9 -54,13l0 0c-1,0 -2,0 -3,0l0 0c-4,0 -8,-1 -11,-3zm839 -50c-10,-24 -20,-48 -31,-73l0 0c-3,-7 -6,-14 -11,-21l0 0c-4,-7 0,-9 5,-10l0 0c30,-7 60,-14 77,-13l0 0c104,1 183,32 250,92l0 0c7,6 7,8 0,15l0 0c-26,21 -53,43 -79,64l0 0c-5,4 -8,2 -11,-1l0 0c-19,-15 -39,-26 -61,-35l0 0c-20,-8 -40,-12 -61,-15l0 0c-23,-3 -45,1 -68,3l0 0c0,0 -1,0 -1,0l0 0c-4,0 -7,-1 -9,-6zm-633 163c-53,-21 -104,-46 -152,-76l0 0c-4,-3 -9,-5 -13,-8l0 0c-1,-1 -3,-4 -3,-5l0 0c1,-2 3,-3 5,-4l0 0c14,-4 28,-8 42,-11l0 0c22,-6 44,-11 66,-17l0 0c28,-7 56,-14 84,-21l0 0c20,-6 41,-11 62,-17l0 0c16,-4 32,-8 49,-12l0 0c17,-5 33,-9 50,-14l0 0c21,-5 43,-10 64,-16l0 0c12,-4 21,0 30,6l0 0c52,29 103,57 155,86l0 0c3,2 6,4 11,7l0 0c-3,3 -6,5 -8,6l0 0c-22,6 -43,11 -64,16l0 0c-21,6 -42,11 -62,17l0 0c-22,5 -44,11 -65,16l0 0c-21,5 -42,11 -62,16l0 0c-22,6 -43,11 -64,17l0 0c-22,6 -44,11 -66,17l0 0c-7,2 -13,4 -20,5l0 0c-3,1 -6,2 -8,2l0 0c-11,0 -21,-6 -31,-10zm674 -26c-3,-14 -6,-28 -10,-42l0 0c-4,-15 -8,-30 -13,-45l0 0c-2,-6 -4,-13 -6,-19l0 0c57,-20 148,11 171,43l0 0c-22,13 -43,26 -66,39l0 0c-21,11 -42,21 -64,32l0 0c-1,0 -3,1 -4,1l0 0c-4,0 -7,-3 -8,-9zm-596 52l-1 -3c10,-3 20,-6 30,-9l0 0c22,-5 44,-11 66,-16l0 0c17,-5 35,-9 52,-14l0 0c16,-4 32,-8 48,-12l0 0c22,-6 44,-12 67,-18l0 0c25,-6 51,-13 77,-20l0 0c20,-5 41,-11 62,-16l0 0c3,-1 7,0 9,1l0 0c48,27 95,53 143,80l0 0c1,1 2,2 5,4l0 0c-56,23 -113,37 -170,46l0 0c-48,8 -96,12 -143,12l0 0c-83,0 -164,-12 -245,-35l0 0z"/>
     <path class="fil3" d="M5614 2654l65 0 0 -403c0,-153 134,-281 302,-281l0 -65c-201,1 -367,153 -367,346l0 0 0 403z"/>
     <path class="fil4" d="M4540 2260l0 -1c0,-189 -167,-338 -367,-338l0 65c169,0 302,125 302,273l0 0 0 0 -5 465 65 1 5 -465z"/>
     <path class="fil5" d="M4681 1158c0,0 102,8 150,84l0 0c22,36 25,71 25,91l0 0c0,0 260,0 308,231l451 -324c-48,-54 -54,-139 -54,-139l0 0 -880 57z"/>
     <path class="fil6" d="M5164 1669c0,0 381,40 406,372l196 -670c-70,-19 -121,-88 -121,-88l0 0 -481 386z"/>
     <path class="fil7" d="M4629 2139l0 0 -11 565 0 33 65 1 11 -599 0 0c0,-190 170,-348 384,-348l0 0c214,0 384,158 384,348l0 0 0 0 1 490 65 0 -1 -490c0,-231 -203,-413 -449,-414 -246,1 -449,183 -449,414l0 0z"/>
     <path class="fil8" d="M5988 2714l0 -800c0,-4 -3,-7 -7,-7l0 0c-3,0 -6,3 -6,7l0 0 0 800c-1,449 -402,815 -899,815l0 0c-497,0 -899,-366 -900,-815l0 0 0 -1338 0 -140c0,-48 13,-96 39,-135l0 0c32,-49 88,-97 189,-98l0 0 2 0c190,1 198,236 198,273l0 0c0,3 0,5 0,5l0 0 9 6c0,0 9,-4 22,-8l0 0c13,-3 31,-7 50,-7l0 0c26,0 54,7 75,31l0 0c20,24 26,48 26,70l0 0c0,35 -16,63 -16,63l0 0c-1,2 -1,5 1,8l0 0c2,2 5,2 8,1l0 0c0,0 12,-5 33,-11l0 0c20,-6 48,-11 79,-11l0 0c51,0 107,14 151,67l0 0c42,50 53,108 53,154l0 0c0,49 -12,85 -12,85l0 0c-1,4 1,7 4,9l0 0c3,1 7,-1 8,-4l0 0c0,-1 13,-38 13,-90l0 0c0,-48 -11,-109 -56,-163l0 0c-47,-56 -108,-71 -161,-71l0 0c-44,0 -82,11 -103,18l0 0c5,-13 11,-32 11,-55l0 0c0,-24 -7,-52 -29,-78l0 0c-24,-28 -57,-36 -85,-36l0 0c-29,0 -55,8 -68,13l0 0c-1,-50 -14,-279 -211,-282l0 0 -2 0c0,0 0,0 0,0l0 0c-105,0 -166,52 -200,104l0 0c-28,42 -41,91 -41,142l0 0 0 140 0 1338c1,458 409,827 913,828l0 0c503,-1 912,-370 912,-828z"/>
     <path class="fil9" d="M5603 900l-60 0 -1084 0c145,38 183,122 192,219l0 0 915 -63c-8,-73 37,-156 37,-156z"/>
     <path class="fil10" d="M5806 1385l-160 627c81,-174 292,-189 351,-162l0 0 0 -369 0 -104c-66,29 -191,8 -191,8l0 0z"/>
     <path class="fil11" d="M5997 900l-329 0c-32,47 -51,104 -51,165l0 0c0,163 149,322 373,260l0 0 7 -425z"/>
    </g>
   </g>
  </g>
 </g>
</svg>
